ISO-10303-21;
HEADER;
FILE_DESCRIPTION(('FreeCAD Model'),'2;1');
FILE_NAME('Open CASCADE Shape Model','2026-10-08T15:15:45',('FreeCAD'),(
    'FreeCAD'),'Open CASCADE STEP processor 7.8','FreeCAD','Unknown');
FILE_SCHEMA(('AUTOMOTIVE_DESIGN { 1 0 10303 214 1 1 1 1 }'));
ENDSEC;
DATA;
#1 = APPLICATION_PROTOCOL_DEFINITION('international standard',
  'automotive_design',2000,#2);
#2 = APPLICATION_CONTEXT(
  'core data for automotive mechanical design processes');
#3 = SHAPE_DEFINITION_REPRESENTATION(#4,#10);
#4 = PRODUCT_DEFINITION_SHAPE('','',#5);
#5 = PRODUCT_DEFINITION('design','',#6,#9);
#6 = PRODUCT_DEFINITION_FORMATION('','',#7);
#7 = PRODUCT('Open CASCADE STEP translator 7.8 1',
  'Open CASCADE STEP translator 7.8 1','',(#8));
#8 = PRODUCT_CONTEXT('',#2,'mechanical');
#9 = PRODUCT_DEFINITION_CONTEXT('part definition',#2,'design');
#10 = ADVANCED_BREP_SHAPE_REPRESENTATION('',(#11,#15),#2223);
#11 = AXIS2_PLACEMENT_3D('',#12,#13,#14);
#12 = CARTESIAN_POINT('',(0.,0.,0.));
#13 = DIRECTION('',(0.,0.,1.));
#14 = DIRECTION('',(1.,0.,-0.));
#15 = MANIFOLD_SOLID_BREP('',#16);
#16 = CLOSED_SHELL('',(#17,#57,#88,#119,#638,#1157,#1174,#1191,#1208,
    #1225,#1242,#1259,#1276,#1293,#1310,#1327,#1344,#1361,#1378,#1395,
    #1412,#1429,#1446,#1463,#1480,#1497,#1514,#1531,#1548,#1565,#1582,
    #1599,#1616,#1633,#1650,#1667,#1684,#1701,#1718,#1735,#1752,#1769,
    #1786,#1803,#1820,#1837,#1854,#1871,#1888,#1905,#1922,#1939,#1956,
    #1973,#1990,#2007,#2024,#2041,#2058,#2075,#2092,#2109,#2126,#2143,
    #2160,#2177,#2189,#2206));
#17 = ADVANCED_FACE('',(#18),#52,.F.);
#18 = FACE_BOUND('',#19,.F.);
#19 = EDGE_LOOP('',(#20,#30,#38,#46));
#20 = ORIENTED_EDGE('',*,*,#21,.T.);
#21 = EDGE_CURVE('',#22,#24,#26,.T.);
#22 = VERTEX_POINT('',#23);
#23 = CARTESIAN_POINT('',(28.,70.,0.));
#24 = VERTEX_POINT('',#25);
#25 = CARTESIAN_POINT('',(28.,70.,25.));
#26 = LINE('',#27,#28);
#27 = CARTESIAN_POINT('',(28.,70.,0.));
#28 = VECTOR('',#29,1.);
#29 = DIRECTION('',(0.,0.,1.));
#30 = ORIENTED_EDGE('',*,*,#31,.T.);
#31 = EDGE_CURVE('',#24,#32,#34,.T.);
#32 = VERTEX_POINT('',#33);
#33 = CARTESIAN_POINT('',(26.923076765072,70.,25.));
#34 = LINE('',#35,#36);
#35 = CARTESIAN_POINT('',(28.,70.,25.));
#36 = VECTOR('',#37,1.);
#37 = DIRECTION('',(-1.,0.,0.));
#38 = ORIENTED_EDGE('',*,*,#39,.F.);
#39 = EDGE_CURVE('',#40,#32,#42,.T.);
#40 = VERTEX_POINT('',#41);
#41 = CARTESIAN_POINT('',(26.923076765072,70.,0.));
#42 = LINE('',#43,#44);
#43 = CARTESIAN_POINT('',(26.923076765072,70.,0.));
#44 = VECTOR('',#45,1.);
#45 = DIRECTION('',(0.,0.,1.));
#46 = ORIENTED_EDGE('',*,*,#47,.F.);
#47 = EDGE_CURVE('',#22,#40,#48,.T.);
#48 = LINE('',#49,#50);
#49 = CARTESIAN_POINT('',(28.,70.,0.));
#50 = VECTOR('',#51,1.);
#51 = DIRECTION('',(-1.,0.,0.));
#52 = PLANE('',#53);
#53 = AXIS2_PLACEMENT_3D('',#54,#55,#56);
#54 = CARTESIAN_POINT('',(28.,70.,0.));
#55 = DIRECTION('',(0.,-1.,0.));
#56 = DIRECTION('',(-1.,0.,0.));
#57 = ADVANCED_FACE('',(#58),#83,.T.);
#58 = FACE_BOUND('',#59,.T.);
#59 = EDGE_LOOP('',(#60,#70,#76,#77));
#60 = ORIENTED_EDGE('',*,*,#61,.F.);
#61 = EDGE_CURVE('',#62,#64,#66,.T.);
#62 = VERTEX_POINT('',#63);
#63 = CARTESIAN_POINT('',(28.,0.,0.));
#64 = VERTEX_POINT('',#65);
#65 = CARTESIAN_POINT('',(28.,0.,25.));
#66 = LINE('',#67,#68);
#67 = CARTESIAN_POINT('',(28.,0.,0.));
#68 = VECTOR('',#69,1.);
#69 = DIRECTION('',(0.,0.,1.));
#70 = ORIENTED_EDGE('',*,*,#71,.T.);
#71 = EDGE_CURVE('',#62,#22,#72,.T.);
#72 = LINE('',#73,#74);
#73 = CARTESIAN_POINT('',(28.,8.511524359385,0.));
#74 = VECTOR('',#75,1.);
#75 = DIRECTION('',(0.,1.,0.));
#76 = ORIENTED_EDGE('',*,*,#21,.T.);
#77 = ORIENTED_EDGE('',*,*,#78,.F.);
#78 = EDGE_CURVE('',#64,#24,#79,.T.);
#79 = LINE('',#80,#81);
#80 = CARTESIAN_POINT('',(28.,0.,25.));
#81 = VECTOR('',#82,1.);
#82 = DIRECTION('',(0.,1.,0.));
#83 = PLANE('',#84);
#84 = AXIS2_PLACEMENT_3D('',#85,#86,#87);
#85 = CARTESIAN_POINT('',(28.,35.,12.5));
#86 = DIRECTION('',(1.,0.,0.));
#87 = DIRECTION('',(0.,0.,1.));
#88 = ADVANCED_FACE('',(#89),#114,.F.);
#89 = FACE_BOUND('',#90,.F.);
#90 = EDGE_LOOP('',(#91,#92,#100,#108));
#91 = ORIENTED_EDGE('',*,*,#39,.T.);
#92 = ORIENTED_EDGE('',*,*,#93,.T.);
#93 = EDGE_CURVE('',#32,#94,#96,.T.);
#94 = VERTEX_POINT('',#95);
#95 = CARTESIAN_POINT('',(25.818322962001,69.023520151774,25.));
#96 = LINE('',#97,#98);
#97 = CARTESIAN_POINT('',(26.923076765072,70.,25.));
#98 = VECTOR('',#99,1.);
#99 = DIRECTION('',(-0.749266557271,-0.662268545346,0.));
#100 = ORIENTED_EDGE('',*,*,#101,.F.);
#101 = EDGE_CURVE('',#102,#94,#104,.T.);
#102 = VERTEX_POINT('',#103);
#103 = CARTESIAN_POINT('',(25.818322962001,69.023520151774,0.));
#104 = LINE('',#105,#106);
#105 = CARTESIAN_POINT('',(25.818322962001,69.023520151774,0.));
#106 = VECTOR('',#107,1.);
#107 = DIRECTION('',(0.,0.,1.));
#108 = ORIENTED_EDGE('',*,*,#109,.F.);
#109 = EDGE_CURVE('',#40,#102,#110,.T.);
#110 = LINE('',#111,#112);
#111 = CARTESIAN_POINT('',(26.923076765072,70.,0.));
#112 = VECTOR('',#113,1.);
#113 = DIRECTION('',(-0.749266557271,-0.662268545346,0.));
#114 = PLANE('',#115);
#115 = AXIS2_PLACEMENT_3D('',#116,#117,#118);
#116 = CARTESIAN_POINT('',(26.923076765072,70.,0.));
#117 = DIRECTION('',(0.662268545346,-0.749266557271,0.));
#118 = DIRECTION('',(-0.749266557271,-0.662268545346,0.));
#119 = ADVANCED_FACE('',(#120,#611,#622),#633,.F.);
#120 = FACE_BOUND('',#121,.F.);
#121 = EDGE_LOOP('',(#122,#130,#131,#132,#133,#141,#149,#157,#165,#173,
    #181,#189,#197,#205,#213,#221,#229,#237,#245,#253,#261,#269,#277,
    #285,#293,#301,#309,#317,#325,#333,#341,#349,#357,#365,#373,#381,
    #389,#397,#405,#413,#421,#429,#437,#445,#453,#461,#469,#477,#485,
    #493,#501,#509,#517,#525,#533,#541,#549,#557,#565,#573,#581,#589,
    #597,#605));
#122 = ORIENTED_EDGE('',*,*,#123,.T.);
#123 = EDGE_CURVE('',#124,#62,#126,.T.);
#124 = VERTEX_POINT('',#125);
#125 = CARTESIAN_POINT('',(0.,0.,0.));
#126 = LINE('',#127,#128);
#127 = CARTESIAN_POINT('',(9.849601430101,0.,0.));
#128 = VECTOR('',#129,1.);
#129 = DIRECTION('',(1.,0.,0.));
#130 = ORIENTED_EDGE('',*,*,#71,.T.);
#131 = ORIENTED_EDGE('',*,*,#47,.T.);
#132 = ORIENTED_EDGE('',*,*,#109,.T.);
#133 = ORIENTED_EDGE('',*,*,#134,.T.);
#134 = EDGE_CURVE('',#102,#135,#137,.T.);
#135 = VERTEX_POINT('',#136);
#136 = CARTESIAN_POINT('',(24.739680472107,68.043123881022,0.));
#137 = LINE('',#138,#139);
#138 = CARTESIAN_POINT('',(25.818322962001,69.023520151774,0.));
#139 = VECTOR('',#140,1.);
#140 = DIRECTION('',(-0.740004202512,-0.672602245212,0.));
#141 = ORIENTED_EDGE('',*,*,#142,.T.);
#142 = EDGE_CURVE('',#135,#143,#145,.T.);
#143 = VERTEX_POINT('',#144);
#144 = CARTESIAN_POINT('',(23.700009815511,67.071259180705,0.));
#145 = LINE('',#146,#147);
#146 = CARTESIAN_POINT('',(24.739680472107,68.043123881022,0.));
#147 = VECTOR('',#148,1.);
#148 = DIRECTION('',(-0.730527411922,-0.682883372496,0.));
#149 = ORIENTED_EDGE('',*,*,#150,.T.);
#150 = EDGE_CURVE('',#143,#151,#153,.T.);
#151 = VERTEX_POINT('',#152);
#152 = CARTESIAN_POINT('',(22.697624602336,66.107610066732,0.));
#153 = LINE('',#154,#155);
#154 = CARTESIAN_POINT('',(23.700009815511,67.071259180705,0.));
#155 = VECTOR('',#156,1.);
#156 = DIRECTION('',(-0.72089875232,-0.693040394857,0.));
#157 = ORIENTED_EDGE('',*,*,#158,.T.);
#158 = EDGE_CURVE('',#151,#159,#161,.T.);
#159 = VERTEX_POINT('',#160);
#160 = CARTESIAN_POINT('',(21.73084460491,65.151727040609,0.));
#161 = LINE('',#162,#163);
#162 = CARTESIAN_POINT('',(22.697624602336,66.107610066732,0.));
#163 = VECTOR('',#164,1.);
#164 = DIRECTION('',(-0.711102990333,-0.703087858762,0.));
#165 = ORIENTED_EDGE('',*,*,#166,.T.);
#166 = EDGE_CURVE('',#159,#167,#169,.T.);
#167 = VERTEX_POINT('',#168);
#168 = CARTESIAN_POINT('',(20.798079974553,64.203191757202,0.));
#169 = LINE('',#170,#171);
#170 = CARTESIAN_POINT('',(21.73084460491,65.151727040609,0.));
#171 = VECTOR('',#172,1.);
#172 = DIRECTION('',(-0.701154576443,-0.71300929863,0.));
#173 = ORIENTED_EDGE('',*,*,#174,.T.);
#174 = EDGE_CURVE('',#167,#175,#177,.T.);
#175 = VERTEX_POINT('',#176);
#176 = CARTESIAN_POINT('',(19.897859998536,63.261608123779,0.));
#177 = LINE('',#178,#179);
#178 = CARTESIAN_POINT('',(20.798079974553,64.203191757202,0.));
#179 = VECTOR('',#180,1.);
#180 = DIRECTION('',(-0.691052159448,-0.722804892707,0.));
#181 = ORIENTED_EDGE('',*,*,#182,.T.);
#182 = EDGE_CURVE('',#175,#183,#185,.T.);
#183 = VERTEX_POINT('',#184);
#184 = CARTESIAN_POINT('',(19.028794072781,62.326580047607,0.));
#185 = LINE('',#186,#187);
#186 = CARTESIAN_POINT('',(19.897859998536,63.261608123779,0.));
#187 = VECTOR('',#188,1.);
#188 = DIRECTION('',(-0.680798305127,-0.732470933032,0.));
#189 = ORIENTED_EDGE('',*,*,#190,.T.);
#190 = EDGE_CURVE('',#183,#191,#193,.T.);
#191 = VERTEX_POINT('',#192);
#192 = CARTESIAN_POINT('',(18.189581972208,61.397724787394,0.));
#193 = LINE('',#194,#195);
#194 = CARTESIAN_POINT('',(19.028794072781,62.326580047607,0.));
#195 = VECTOR('',#196,1.);
#196 = DIRECTION('',(-0.670394500382,-0.742004861074,0.));
#197 = ORIENTED_EDGE('',*,*,#198,.T.);
#198 = EDGE_CURVE('',#191,#199,#201,.T.);
#199 = VERTEX_POINT('',#200);
#200 = CARTESIAN_POINT('',(17.379003580387,60.474659601847,0.));
#201 = LINE('',#202,#203);
#202 = CARTESIAN_POINT('',(18.189581972208,61.397724787394,0.));
#203 = VECTOR('',#204,1.);
#204 = DIRECTION('',(-0.659838924446,-0.751407075949,0.));
#205 = ORIENTED_EDGE('',*,*,#206,.T.);
#206 = EDGE_CURVE('',#199,#207,#209,.T.);
#207 = VERTEX_POINT('',#208);
#208 = CARTESIAN_POINT('',(16.595915808445,59.557001749674,0.));
#209 = LINE('',#210,#211);
#210 = CARTESIAN_POINT('',(17.379003580387,60.474659601847,0.));
#211 = VECTOR('',#212,1.);
#212 = DIRECTION('',(-0.649128738184,-0.760678566323,0.));
#213 = ORIENTED_EDGE('',*,*,#214,.T.);
#214 = EDGE_CURVE('',#207,#215,#217,.T.);
#215 = VERTEX_POINT('',#216);
#216 = CARTESIAN_POINT('',(15.839232054378,58.644404093424,0.));
#217 = LINE('',#218,#219);
#218 = CARTESIAN_POINT('',(16.595915808445,59.557001749674,0.));
#219 = VECTOR('',#220,1.);
#220 = DIRECTION('',(-0.638283614541,-0.769801290859,0.));
#221 = ORIENTED_EDGE('',*,*,#222,.T.);
#222 = EDGE_CURVE('',#215,#223,#225,.T.);
#223 = VERTEX_POINT('',#224);
#224 = CARTESIAN_POINT('',(15.107951987039,57.736497243245,0.));
#225 = LINE('',#226,#227);
#226 = CARTESIAN_POINT('',(15.839232054378,58.644404093424,0.));
#227 = VECTOR('',#228,1.);
#228 = DIRECTION('',(-0.627283061152,-0.778791346377,0.));
#229 = ORIENTED_EDGE('',*,*,#230,.T.);
#230 = EDGE_CURVE('',#223,#231,#233,.T.);
#231 = VERTEX_POINT('',#232);
#232 = CARTESIAN_POINT('',(14.570684810152,57.052129109701,0.));
#233 = LINE('',#234,#235);
#234 = CARTESIAN_POINT('',(15.107951987039,57.736497243245,0.));
#235 = VECTOR('',#236,1.);
#236 = DIRECTION('',(-0.61750126014,-0.786569891189,0.));
#237 = ORIENTED_EDGE('',*,*,#238,.T.);
#238 = EDGE_CURVE('',#231,#239,#241,.T.);
#239 = VERTEX_POINT('',#240);
#240 = CARTESIAN_POINT('',(14.401119437749,56.832929611206,0.));
#241 = LINE('',#242,#243);
#242 = CARTESIAN_POINT('',(14.570684810152,57.052129109701,0.));
#243 = VECTOR('',#244,1.);
#244 = DIRECTION('',(-0.611863004942,-0.790963755923,0.));
#245 = ORIENTED_EDGE('',*,*,#246,.T.);
#246 = EDGE_CURVE('',#239,#247,#249,.T.);
#247 = VERTEX_POINT('',#248);
#248 = CARTESIAN_POINT('',(13.717853211308,55.933362960815,0.));
#249 = LINE('',#250,#251);
#250 = CARTESIAN_POINT('',(14.401119437749,56.832929611206,0.));
#251 = VECTOR('',#252,1.);
#252 = DIRECTION('',(-0.604856305372,-0.796334634342,0.));
#253 = ORIENTED_EDGE('',*,*,#254,.T.);
#254 = EDGE_CURVE('',#247,#255,#257,.T.);
#255 = VERTEX_POINT('',#256);
#256 = CARTESIAN_POINT('',(13.057293680234,55.037450154622,0.));
#257 = LINE('',#258,#259);
#258 = CARTESIAN_POINT('',(13.717853211308,55.933362960815,0.));
#259 = VECTOR('',#260,1.);
#260 = DIRECTION('',(-0.593439631942,-0.804878502161,0.));
#261 = ORIENTED_EDGE('',*,*,#262,.T.);
#262 = EDGE_CURVE('',#255,#263,#265,.T.);
#263 = VERTEX_POINT('',#264);
#264 = CARTESIAN_POINT('',(12.418678785277,54.144870758057,0.));
#265 = LINE('',#266,#267);
#266 = CARTESIAN_POINT('',(13.057293680234,55.037450154622,0.));
#267 = VECTOR('',#268,1.);
#268 = DIRECTION('',(-0.58187645018,-0.813277195503,0.));
#269 = ORIENTED_EDGE('',*,*,#270,.T.);
#270 = EDGE_CURVE('',#263,#271,#273,.T.);
#271 = VERTEX_POINT('',#272);
#272 = CARTESIAN_POINT('',(11.80124749422,53.255273183187,0.));
#273 = LINE('',#274,#275);
#274 = CARTESIAN_POINT('',(12.418678785277,54.144870758057,0.));
#275 = VECTOR('',#276,1.);
#276 = DIRECTION('',(-0.570180971202,-0.821519117294,0.));
#277 = ORIENTED_EDGE('',*,*,#278,.T.);
#278 = EDGE_CURVE('',#271,#279,#281,.T.);
#279 = VERTEX_POINT('',#280);
#280 = CARTESIAN_POINT('',(11.2043158024,52.368336995443,0.));
#281 = LINE('',#282,#283);
#282 = CARTESIAN_POINT('',(11.80124749422,53.255273183187,0.));
#283 = VECTOR('',#284,1.);
#284 = DIRECTION('',(-0.558347665305,-0.829607066416,0.));
#285 = ORIENTED_EDGE('',*,*,#286,.T.);
#286 = EDGE_CURVE('',#279,#287,#289,.T.);
#287 = VERTEX_POINT('',#288);
#288 = CARTESIAN_POINT('',(10.627226408038,51.483741760254,0.));
#289 = LINE('',#290,#291);
#290 = CARTESIAN_POINT('',(11.2043158024,52.368336995443,0.));
#291 = VECTOR('',#292,1.);
#292 = DIRECTION('',(-0.546386982986,-0.837532844027,0.));
#293 = ORIENTED_EDGE('',*,*,#294,.T.);
#294 = EDGE_CURVE('',#287,#295,#297,.T.);
#295 = VERTEX_POINT('',#296);
#296 = CARTESIAN_POINT('',(10.069371306987,50.601144790649,0.));
#297 = LINE('',#298,#299);
#298 = CARTESIAN_POINT('',(10.627226408038,51.483741760254,0.));
#299 = VECTOR('',#300,1.);
#300 = DIRECTION('',(-0.53428423325,-0.845304890617,0.));
#301 = ORIENTED_EDGE('',*,*,#302,.T.);
#302 = EDGE_CURVE('',#295,#303,#305,.T.);
#303 = VERTEX_POINT('',#304);
#304 = CARTESIAN_POINT('',(9.530178441294,49.72025680542,0.));
#305 = LINE('',#306,#307);
#306 = CARTESIAN_POINT('',(10.069371306987,50.601144790649,0.));
#307 = VECTOR('',#308,1.);
#308 = DIRECTION('',(-0.522064903701,-0.852905760518,0.));
#309 = ORIENTED_EDGE('',*,*,#310,.T.);
#310 = EDGE_CURVE('',#303,#311,#313,.T.);
#311 = VERTEX_POINT('',#312);
#312 = CARTESIAN_POINT('',(9.009102455888,48.840748469035,0.));
#313 = LINE('',#314,#315);
#314 = CARTESIAN_POINT('',(9.530178441294,49.72025680542,0.));
#315 = VECTOR('',#316,1.);
#316 = DIRECTION('',(-0.5097197539,-0.860340497991,0.));
#317 = ORIENTED_EDGE('',*,*,#318,.T.);
#318 = EDGE_CURVE('',#311,#319,#321,.T.);
#319 = VERTEX_POINT('',#320);
#320 = CARTESIAN_POINT('',(8.50563907706,47.962308247884,0.));
#321 = LINE('',#322,#323);
#322 = CARTESIAN_POINT('',(9.009102455888,48.840748469035,0.));
#323 = VECTOR('',#324,1.);
#324 = DIRECTION('',(-0.497253518305,-0.867605289595,0.));
#325 = ORIENTED_EDGE('',*,*,#326,.T.);
#326 = EDGE_CURVE('',#319,#327,#329,.T.);
#327 = VERTEX_POINT('',#328);
#328 = CARTESIAN_POINT('',(8.019322031362,47.084615707397,0.));
#329 = LINE('',#330,#331);
#330 = CARTESIAN_POINT('',(8.50563907706,47.962308247884,0.));
#331 = VECTOR('',#332,1.);
#332 = DIRECTION('',(-0.484660288016,-0.874702466682,0.));
#333 = ORIENTED_EDGE('',*,*,#334,.T.);
#334 = EDGE_CURVE('',#327,#335,#337,.T.);
#335 = VERTEX_POINT('',#336);
#336 = CARTESIAN_POINT('',(7.549718937466,46.207359313965,0.));
#337 = LINE('',#338,#339);
#338 = CARTESIAN_POINT('',(8.019322031362,47.084615707397,0.));
#339 = VECTOR('',#340,1.);
#340 = DIRECTION('',(-0.471943639331,-0.881628720775,0.));
#341 = ORIENTED_EDGE('',*,*,#342,.T.);
#342 = EDGE_CURVE('',#335,#343,#345,.T.);
#343 = VERTEX_POINT('',#344);
#344 = CARTESIAN_POINT('',(7.09640357625,45.330236434937,0.));
#345 = LINE('',#346,#347);
#346 = CARTESIAN_POINT('',(7.549718937466,46.207359313965,0.));
#347 = VECTOR('',#348,1.);
#348 = DIRECTION('',(-0.459128135922,-0.888370055104,0.));
#349 = ORIENTED_EDGE('',*,*,#350,.T.);
#350 = EDGE_CURVE('',#343,#351,#353,.T.);
#351 = VERTEX_POINT('',#352);
#352 = CARTESIAN_POINT('',(6.659000053259,44.452926635742,0.));
#353 = LINE('',#354,#355);
#354 = CARTESIAN_POINT('',(7.09640357625,45.330236434937,0.));
#355 = VECTOR('',#356,1.);
#356 = DIRECTION('',(-0.446192088013,-0.894937216007,0.));
#357 = ORIENTED_EDGE('',*,*,#358,.T.);
#358 = EDGE_CURVE('',#351,#359,#361,.T.);
#359 = VERTEX_POINT('',#360);
#360 = CARTESIAN_POINT('',(6.237161230991,43.575113932292,0.));
#361 = LINE('',#362,#363);
#362 = CARTESIAN_POINT('',(6.659000053259,44.452926635742,0.));
#363 = VECTOR('',#364,1.);
#364 = DIRECTION('',(-0.433138871458,-0.901327198099,0.));
#365 = ORIENTED_EDGE('',*,*,#366,.T.);
#366 = EDGE_CURVE('',#359,#367,#369,.T.);
#367 = VERTEX_POINT('',#368);
#368 = CARTESIAN_POINT('',(5.830552296353,42.696495691935,0.));
#369 = LINE('',#370,#371);
#370 = CARTESIAN_POINT('',(6.237161230991,43.575113932292,0.));
#371 = VECTOR('',#372,1.);
#372 = DIRECTION('',(-0.419988515374,-0.907529419332,0.));
#373 = ORIENTED_EDGE('',*,*,#374,.T.);
#374 = EDGE_CURVE('',#367,#375,#377,.T.);
#375 = VERTEX_POINT('',#376);
#376 = CARTESIAN_POINT('',(5.438875409475,41.816755930583,0.));
#377 = LINE('',#378,#379);
#378 = CARTESIAN_POINT('',(5.830552296353,42.696495691935,0.));
#379 = VECTOR('',#380,1.);
#380 = DIRECTION('',(-0.406729284886,-0.913548733684,0.));
#381 = ORIENTED_EDGE('',*,*,#382,.T.);
#382 = EDGE_CURVE('',#375,#383,#385,.T.);
#383 = VERTEX_POINT('',#384);
#384 = CARTESIAN_POINT('',(5.061841973795,40.935574213664,0.));
#385 = LINE('',#386,#387);
#386 = CARTESIAN_POINT('',(5.438875409475,41.816755930583,0.));
#387 = VECTOR('',#388,1.);
#388 = DIRECTION('',(-0.393376371368,-0.919377523355,0.));
#389 = ORIENTED_EDGE('',*,*,#390,.T.);
#390 = EDGE_CURVE('',#383,#391,#393,.T.);
#391 = VERTEX_POINT('',#392);
#392 = CARTESIAN_POINT('',(4.699210636317,40.052634557088,0.));
#393 = LINE('',#394,#395);
#394 = CARTESIAN_POINT('',(5.061841973795,40.935574213664,0.));
#395 = VECTOR('',#396,1.);
#396 = DIRECTION('',(-0.379914736698,-0.925021509393,0.));
#397 = ORIENTED_EDGE('',*,*,#398,.T.);
#398 = EDGE_CURVE('',#391,#399,#401,.T.);
#399 = VERTEX_POINT('',#400);
#400 = CARTESIAN_POINT('',(4.350741071076,39.167607625326,0.));
#401 = LINE('',#402,#403);
#402 = CARTESIAN_POINT('',(4.699210636317,40.052634557088,0.));
#403 = VECTOR('',#404,1.);
#404 = DIRECTION('',(-0.366363052117,-0.930471984556,0.));
#405 = ORIENTED_EDGE('',*,*,#406,.T.);
#406 = EDGE_CURVE('',#399,#407,#409,.T.);
#407 = VERTEX_POINT('',#408);
#408 = CARTESIAN_POINT('',(4.01623274968,38.280190785726,0.));
#409 = LINE('',#410,#411);
#410 = CARTESIAN_POINT('',(4.350741071076,39.167607625326,0.));
#411 = VECTOR('',#412,1.);
#412 = DIRECTION('',(-0.352719448291,-0.935729122555,0.));
#413 = ORIENTED_EDGE('',*,*,#414,.T.);
#414 = EDGE_CURVE('',#407,#415,#417,.T.);
#415 = VERTEX_POINT('',#416);
#416 = CARTESIAN_POINT('',(3.695493103246,37.390036900838,0.));
#417 = LINE('',#418,#419);
#418 = CARTESIAN_POINT('',(4.01623274968,38.280190785726,0.));
#419 = VECTOR('',#420,1.);
#420 = DIRECTION('',(-0.338985405293,-0.940791632083,0.));
#421 = ORIENTED_EDGE('',*,*,#422,.T.);
#422 = EDGE_CURVE('',#415,#423,#425,.T.);
#423 = VERTEX_POINT('',#424);
#424 = CARTESIAN_POINT('',(3.388353698195,36.496827761332,0.));
#425 = LINE('',#426,#427);
#426 = CARTESIAN_POINT('',(3.695493103246,37.390036900838,0.));
#427 = VECTOR('',#428,1.);
#428 = DIRECTION('',(-0.325173279402,-0.945654449766,0.));
#429 = ORIENTED_EDGE('',*,*,#430,.T.);
#430 = EDGE_CURVE('',#423,#431,#433,.T.);
#431 = VERTEX_POINT('',#432);
#432 = CARTESIAN_POINT('',(3.094670236246,35.600220680237,0.));
#433 = LINE('',#434,#435);
#434 = CARTESIAN_POINT('',(3.388353698195,36.496827761332,0.));
#435 = VECTOR('',#436,1.);
#436 = DIRECTION('',(-0.311276876665,-0.950319265328,0.));
#437 = ORIENTED_EDGE('',*,*,#438,.T.);
#438 = EDGE_CURVE('',#431,#439,#441,.T.);
#439 = VERTEX_POINT('',#440);
#440 = CARTESIAN_POINT('',(2.814330000412,34.699884096781,0.));
#441 = LINE('',#442,#443);
#442 = CARTESIAN_POINT('',(3.094670236246,35.600220680237,0.));
#443 = VECTOR('',#444,1.);
#444 = DIRECTION('',(-0.297294267332,-0.954785901976,0.));
#445 = ORIENTED_EDGE('',*,*,#446,.T.);
#446 = EDGE_CURVE('',#439,#447,#449,.T.);
#447 = VERTEX_POINT('',#448);
#448 = CARTESIAN_POINT('',(2.547220787227,33.795459747314,0.));
#449 = LINE('',#450,#451);
#450 = CARTESIAN_POINT('',(2.814330000412,34.699884096781,0.));
#451 = VECTOR('',#452,1.);
#452 = DIRECTION('',(-0.283241716125,-0.959048554687,0.));
#453 = ORIENTED_EDGE('',*,*,#454,.T.);
#454 = EDGE_CURVE('',#447,#455,#457,.T.);
#455 = VERTEX_POINT('',#456);
#456 = CARTESIAN_POINT('',(2.293254785282,32.886604944865,0.));
#457 = LINE('',#458,#459);
#458 = CARTESIAN_POINT('',(2.547220787227,33.795459747314,0.));
#459 = VECTOR('',#460,1.);
#460 = DIRECTION('',(-0.269125451757,-0.963105129888,0.));
#461 = ORIENTED_EDGE('',*,*,#462,.T.);
#462 = EDGE_CURVE('',#455,#463,#465,.T.);
#463 = VERTEX_POINT('',#464);
#464 = CARTESIAN_POINT('',(2.052383082079,31.972968101501,0.));
#465 = LINE('',#466,#467);
#466 = CARTESIAN_POINT('',(2.293254785282,32.886604944865,0.));
#467 = VECTOR('',#468,1.);
#468 = DIRECTION('',(-0.254929737768,-0.966959579714,0.));
#469 = ORIENTED_EDGE('',*,*,#470,.T.);
#470 = EDGE_CURVE('',#463,#471,#473,.T.);
#471 = VERTEX_POINT('',#472);
#472 = CARTESIAN_POINT('',(1.824558048917,31.054182052612,0.));
#473 = LINE('',#474,#475);
#474 = CARTESIAN_POINT('',(2.052383082079,31.972968101501,0.));
#475 = VECTOR('',#476,1.);
#476 = DIRECTION('',(-0.240674443747,-0.970605899491,0.));
#477 = ORIENTED_EDGE('',*,*,#478,.T.);
#478 = EDGE_CURVE('',#471,#479,#481,.T.);
#479 = VERTEX_POINT('',#480);
#480 = CARTESIAN_POINT('',(1.609747462602,30.129872957865,0.));
#481 = LINE('',#482,#483);
#482 = CARTESIAN_POINT('',(1.824558048917,31.054182052612,0.));
#483 = VECTOR('',#484,1.);
#484 = DIRECTION('',(-0.226368513294,-0.974041732263,0.));
#485 = ORIENTED_EDGE('',*,*,#486,.T.);
#486 = EDGE_CURVE('',#479,#487,#489,.T.);
#487 = VERTEX_POINT('',#488);
#488 = CARTESIAN_POINT('',(1.407959411028,29.199649175008,0.));
#489 = LINE('',#490,#491);
#490 = CARTESIAN_POINT('',(1.609747462602,30.129872957865,0.));
#491 = VECTOR('',#492,1.);
#492 = DIRECTION('',(-0.211993736933,-0.977271024589,0.));
#493 = ORIENTED_EDGE('',*,*,#494,.T.);
#494 = EDGE_CURVE('',#487,#495,#497,.T.);
#495 = VERTEX_POINT('',#496);
#496 = CARTESIAN_POINT('',(1.219217772736,28.263145764669,0.));
#497 = LINE('',#498,#499);
#498 = CARTESIAN_POINT('',(1.407959411028,29.199649175008,0.));
#499 = VECTOR('',#500,1.);
#500 = DIRECTION('',(-0.197566236014,-0.980289540078,0.));
#501 = ORIENTED_EDGE('',*,*,#502,.T.);
#502 = EDGE_CURVE('',#495,#503,#505,.T.);
#503 = VERTEX_POINT('',#504);
#504 = CARTESIAN_POINT('',(1.043546811404,27.319951057434,0.));
#505 = LINE('',#506,#507);
#506 = CARTESIAN_POINT('',(1.219217772736,28.263145764669,0.));
#507 = VECTOR('',#508,1.);
#508 = DIRECTION('',(-0.183102222259,-0.983093879649,0.));
#509 = ORIENTED_EDGE('',*,*,#510,.T.);
#510 = EDGE_CURVE('',#503,#511,#513,.T.);
#511 = VERTEX_POINT('',#512);
#512 = CARTESIAN_POINT('',(0.881018676174,26.369657834371,0.));
#513 = LINE('',#514,#515);
#514 = CARTESIAN_POINT('',(1.043546811404,27.319951057434,0.));
#515 = VECTOR('',#516,1.);
#516 = DIRECTION('',(-0.168581632686,-0.985687695531,0.));
#517 = ORIENTED_EDGE('',*,*,#518,.T.);
#518 = EDGE_CURVE('',#511,#519,#521,.T.);
#519 = VERTEX_POINT('',#520);
#520 = CARTESIAN_POINT('',(0.731705580375,25.411856651306,0.));
#521 = LINE('',#522,#523);
#522 = CARTESIAN_POINT('',(0.881018676174,26.369657834371,0.));
#523 = VECTOR('',#524,1.);
#524 = DIRECTION('',(-0.154031123949,-0.988065996204,0.));
#525 = ORIENTED_EDGE('',*,*,#526,.T.);
#526 = EDGE_CURVE('',#519,#527,#529,.T.);
#527 = VERTEX_POINT('',#528);
#528 = CARTESIAN_POINT('',(0.595719855854,24.446093559265,0.));
#529 = LINE('',#530,#531);
#530 = CARTESIAN_POINT('',(0.731705580375,25.411856651306,0.));
#531 = VECTOR('',#532,1.);
#532 = DIRECTION('',(-0.139431074732,-0.990231778625,0.));
#533 = ORIENTED_EDGE('',*,*,#534,.T.);
#534 = EDGE_CURVE('',#527,#535,#537,.T.);
#535 = VERTEX_POINT('',#536);
#536 = CARTESIAN_POINT('',(0.473181858163,23.471947987874,0.));
#537 = LINE('',#538,#539);
#538 = CARTESIAN_POINT('',(0.595719855854,24.446093559265,0.));
#539 = VECTOR('',#540,1.);
#540 = DIRECTION('',(-0.124806688196,-0.992181077516,0.));
#541 = ORIENTED_EDGE('',*,*,#542,.T.);
#542 = EDGE_CURVE('',#535,#543,#545,.T.);
#543 = VERTEX_POINT('',#544);
#544 = CARTESIAN_POINT('',(0.364244037664,22.488957087199,0.));
#545 = LINE('',#546,#547);
#546 = CARTESIAN_POINT('',(0.473181858163,23.471947987874,0.));
#547 = VECTOR('',#548,1.);
#548 = DIRECTION('',(-0.110148475903,-0.993915143891,0.));
#549 = ORIENTED_EDGE('',*,*,#550,.T.);
#550 = EDGE_CURVE('',#543,#551,#553,.T.);
#551 = VERTEX_POINT('',#552);
#552 = CARTESIAN_POINT('',(0.269074892128,21.496646881104,0.));
#553 = LINE('',#554,#555);
#554 = CARTESIAN_POINT('',(0.364244037664,22.488957087199,0.));
#555 = VECTOR('',#556,1.);
#556 = DIRECTION('',(-9.546858880974E-02,-0.995432442987,0.));
#557 = ORIENTED_EDGE('',*,*,#558,.T.);
#558 = EDGE_CURVE('',#551,#559,#561,.T.);
#559 = VERTEX_POINT('',#560);
#560 = CARTESIAN_POINT('',(0.187866990437,20.494534492493,0.));
#561 = LINE('',#562,#563);
#562 = CARTESIAN_POINT('',(0.269074892128,21.496646881104,0.));
#563 = VECTOR('',#564,1.);
#564 = DIRECTION('',(-8.077194197578E-02,-0.996732608772,0.));
#565 = ORIENTED_EDGE('',*,*,#566,.T.);
#566 = EDGE_CURVE('',#559,#567,#569,.T.);
#567 = VERTEX_POINT('',#568);
#568 = CARTESIAN_POINT('',(0.120844996283,19.48212146759,0.));
#569 = LINE('',#570,#571);
#570 = CARTESIAN_POINT('',(0.187866990437,20.494534492493,0.));
#571 = VECTOR('',#572,1.);
#572 = DIRECTION('',(-6.605566347492E-02,-0.997815939602,0.));
#573 = ORIENTED_EDGE('',*,*,#574,.T.);
#574 = EDGE_CURVE('',#567,#575,#577,.T.);
#575 = VERTEX_POINT('',#576);
#576 = CARTESIAN_POINT('',(6.82656681744E-02,18.45889266332,0.));
#577 = LINE('',#578,#579);
#578 = CARTESIAN_POINT('',(0.120844996283,19.48212146759,0.));
#579 = VECTOR('',#580,1.);
#580 = DIRECTION('',(-5.131799208662E-02,-0.998682363761,0.));
#581 = ORIENTED_EDGE('',*,*,#582,.T.);
#582 = EDGE_CURVE('',#575,#583,#585,.T.);
#583 = VERTEX_POINT('',#584);
#584 = CARTESIAN_POINT('',(3.038576461877E-02,17.424296220144,0.));
#585 = LINE('',#586,#587);
#586 = CARTESIAN_POINT('',(6.82656681744E-02,18.45889266332,0.));
#587 = VECTOR('',#588,1.);
#588 = DIRECTION('',(-3.658870062316E-02,-0.999330409318,0.));
#589 = ORIENTED_EDGE('',*,*,#590,.T.);
#590 = EDGE_CURVE('',#583,#591,#593,.T.);
#591 = VERTEX_POINT('',#592);
#592 = CARTESIAN_POINT('',(7.518210046946E-03,16.377795855204,0.));
#593 = LINE('',#594,#595);
#594 = CARTESIAN_POINT('',(3.038576461877E-02,17.424296220144,0.));
#595 = VECTOR('',#596,1.);
#596 = DIRECTION('',(-2.184623897234E-02,-0.999761342443,0.));
#597 = ORIENTED_EDGE('',*,*,#598,.T.);
#598 = EDGE_CURVE('',#591,#599,#601,.T.);
#599 = VERTEX_POINT('',#600);
#600 = CARTESIAN_POINT('',(0.,15.337124506632,0.));
#601 = LINE('',#602,#603);
#602 = CARTESIAN_POINT('',(7.518210046946E-03,16.377795855204,0.));
#603 = VECTOR('',#604,1.);
#604 = DIRECTION('',(-7.224196064145E-03,-0.999973905155,0.));
#605 = ORIENTED_EDGE('',*,*,#606,.T.);
#606 = EDGE_CURVE('',#599,#124,#607,.T.);
#607 = LINE('',#608,#609);
#608 = CARTESIAN_POINT('',(0.,1.7148249348,0.));
#609 = VECTOR('',#610,1.);
#610 = DIRECTION('',(0.,-1.,0.));
#611 = FACE_BOUND('',#612,.F.);
#612 = EDGE_LOOP('',(#613));
#613 = ORIENTED_EDGE('',*,*,#614,.F.);
#614 = EDGE_CURVE('',#615,#615,#617,.T.);
#615 = VERTEX_POINT('',#616);
#616 = CARTESIAN_POINT('',(4.699996626466,4.699987598136,0.));
#617 = CIRCLE('',#618,1.700000037619);
#618 = AXIS2_PLACEMENT_3D('',#619,#620,#621);
#619 = CARTESIAN_POINT('',(2.999996588847,4.699987598136,0.));
#620 = DIRECTION('',(0.,0.,1.));
#621 = DIRECTION('',(1.,0.,0.));
#622 = FACE_BOUND('',#623,.F.);
#623 = EDGE_LOOP('',(#624));
#624 = ORIENTED_EDGE('',*,*,#625,.F.);
#625 = EDGE_CURVE('',#626,#626,#628,.T.);
#626 = VERTEX_POINT('',#627);
#627 = CARTESIAN_POINT('',(24.699996906597,4.699987598136,0.));
#628 = CIRCLE('',#629,1.700000036113);
#629 = AXIS2_PLACEMENT_3D('',#630,#631,#632);
#630 = CARTESIAN_POINT('',(22.999996870484,4.699987598136,0.));
#631 = DIRECTION('',(0.,0.,1.));
#632 = DIRECTION('',(1.,0.,0.));
#633 = PLANE('',#634);
#634 = AXIS2_PLACEMENT_3D('',#635,#636,#637);
#635 = CARTESIAN_POINT('',(16.751783317443,30.737853713096,0.));
#636 = DIRECTION('',(0.,0.,1.));
#637 = DIRECTION('',(1.,0.,0.));
#638 = ADVANCED_FACE('',(#639,#1130,#1141),#1152,.T.);
#639 = FACE_BOUND('',#640,.T.);
#640 = EDGE_LOOP('',(#641,#642,#643,#644,#652,#660,#668,#676,#684,#692,
    #700,#708,#716,#724,#732,#740,#748,#756,#764,#772,#780,#788,#796,
    #804,#812,#820,#828,#836,#844,#852,#860,#868,#876,#884,#892,#900,
    #908,#916,#924,#932,#940,#948,#956,#964,#972,#980,#988,#996,#1004,
    #1012,#1020,#1028,#1036,#1044,#1052,#1060,#1068,#1076,#1084,#1092,
    #1100,#1108,#1116,#1124));
#641 = ORIENTED_EDGE('',*,*,#78,.T.);
#642 = ORIENTED_EDGE('',*,*,#31,.T.);
#643 = ORIENTED_EDGE('',*,*,#93,.T.);
#644 = ORIENTED_EDGE('',*,*,#645,.T.);
#645 = EDGE_CURVE('',#94,#646,#648,.T.);
#646 = VERTEX_POINT('',#647);
#647 = CARTESIAN_POINT('',(24.739680472107,68.043123881022,25.));
#648 = LINE('',#649,#650);
#649 = CARTESIAN_POINT('',(25.818322962001,69.023520151774,25.));
#650 = VECTOR('',#651,1.);
#651 = DIRECTION('',(-0.740004202512,-0.672602245212,0.));
#652 = ORIENTED_EDGE('',*,*,#653,.T.);
#653 = EDGE_CURVE('',#646,#654,#656,.T.);
#654 = VERTEX_POINT('',#655);
#655 = CARTESIAN_POINT('',(23.700009815511,67.071259180705,25.));
#656 = LINE('',#657,#658);
#657 = CARTESIAN_POINT('',(24.739680472107,68.043123881022,25.));
#658 = VECTOR('',#659,1.);
#659 = DIRECTION('',(-0.730527411922,-0.682883372496,0.));
#660 = ORIENTED_EDGE('',*,*,#661,.T.);
#661 = EDGE_CURVE('',#654,#662,#664,.T.);
#662 = VERTEX_POINT('',#663);
#663 = CARTESIAN_POINT('',(22.697624602336,66.107610066732,25.));
#664 = LINE('',#665,#666);
#665 = CARTESIAN_POINT('',(23.700009815511,67.071259180705,25.));
#666 = VECTOR('',#667,1.);
#667 = DIRECTION('',(-0.72089875232,-0.693040394857,0.));
#668 = ORIENTED_EDGE('',*,*,#669,.T.);
#669 = EDGE_CURVE('',#662,#670,#672,.T.);
#670 = VERTEX_POINT('',#671);
#671 = CARTESIAN_POINT('',(21.73084460491,65.151727040609,25.));
#672 = LINE('',#673,#674);
#673 = CARTESIAN_POINT('',(22.697624602336,66.107610066732,25.));
#674 = VECTOR('',#675,1.);
#675 = DIRECTION('',(-0.711102990333,-0.703087858762,0.));
#676 = ORIENTED_EDGE('',*,*,#677,.T.);
#677 = EDGE_CURVE('',#670,#678,#680,.T.);
#678 = VERTEX_POINT('',#679);
#679 = CARTESIAN_POINT('',(20.798079974553,64.203191757202,25.));
#680 = LINE('',#681,#682);
#681 = CARTESIAN_POINT('',(21.73084460491,65.151727040609,25.));
#682 = VECTOR('',#683,1.);
#683 = DIRECTION('',(-0.701154576443,-0.71300929863,0.));
#684 = ORIENTED_EDGE('',*,*,#685,.T.);
#685 = EDGE_CURVE('',#678,#686,#688,.T.);
#686 = VERTEX_POINT('',#687);
#687 = CARTESIAN_POINT('',(19.897859998536,63.261608123779,25.));
#688 = LINE('',#689,#690);
#689 = CARTESIAN_POINT('',(20.798079974553,64.203191757202,25.));
#690 = VECTOR('',#691,1.);
#691 = DIRECTION('',(-0.691052159448,-0.722804892707,0.));
#692 = ORIENTED_EDGE('',*,*,#693,.T.);
#693 = EDGE_CURVE('',#686,#694,#696,.T.);
#694 = VERTEX_POINT('',#695);
#695 = CARTESIAN_POINT('',(19.028794072781,62.326580047607,25.));
#696 = LINE('',#697,#698);
#697 = CARTESIAN_POINT('',(19.897859998536,63.261608123779,25.));
#698 = VECTOR('',#699,1.);
#699 = DIRECTION('',(-0.680798305127,-0.732470933032,0.));
#700 = ORIENTED_EDGE('',*,*,#701,.T.);
#701 = EDGE_CURVE('',#694,#702,#704,.T.);
#702 = VERTEX_POINT('',#703);
#703 = CARTESIAN_POINT('',(18.189581972208,61.397724787394,25.));
#704 = LINE('',#705,#706);
#705 = CARTESIAN_POINT('',(19.028794072781,62.326580047607,25.));
#706 = VECTOR('',#707,1.);
#707 = DIRECTION('',(-0.670394500382,-0.742004861074,0.));
#708 = ORIENTED_EDGE('',*,*,#709,.T.);
#709 = EDGE_CURVE('',#702,#710,#712,.T.);
#710 = VERTEX_POINT('',#711);
#711 = CARTESIAN_POINT('',(17.379003580387,60.474659601847,25.));
#712 = LINE('',#713,#714);
#713 = CARTESIAN_POINT('',(18.189581972208,61.397724787394,25.));
#714 = VECTOR('',#715,1.);
#715 = DIRECTION('',(-0.659838924446,-0.751407075949,0.));
#716 = ORIENTED_EDGE('',*,*,#717,.T.);
#717 = EDGE_CURVE('',#710,#718,#720,.T.);
#718 = VERTEX_POINT('',#719);
#719 = CARTESIAN_POINT('',(16.595915808445,59.557001749674,25.));
#720 = LINE('',#721,#722);
#721 = CARTESIAN_POINT('',(17.379003580387,60.474659601847,25.));
#722 = VECTOR('',#723,1.);
#723 = DIRECTION('',(-0.649128738184,-0.760678566323,0.));
#724 = ORIENTED_EDGE('',*,*,#725,.T.);
#725 = EDGE_CURVE('',#718,#726,#728,.T.);
#726 = VERTEX_POINT('',#727);
#727 = CARTESIAN_POINT('',(15.839232054378,58.644404093424,25.));
#728 = LINE('',#729,#730);
#729 = CARTESIAN_POINT('',(16.595915808445,59.557001749674,25.));
#730 = VECTOR('',#731,1.);
#731 = DIRECTION('',(-0.638283614541,-0.769801290859,0.));
#732 = ORIENTED_EDGE('',*,*,#733,.T.);
#733 = EDGE_CURVE('',#726,#734,#736,.T.);
#734 = VERTEX_POINT('',#735);
#735 = CARTESIAN_POINT('',(15.107951987039,57.736497243245,25.));
#736 = LINE('',#737,#738);
#737 = CARTESIAN_POINT('',(15.839232054378,58.644404093424,25.));
#738 = VECTOR('',#739,1.);
#739 = DIRECTION('',(-0.627283061152,-0.778791346377,0.));
#740 = ORIENTED_EDGE('',*,*,#741,.T.);
#741 = EDGE_CURVE('',#734,#742,#744,.T.);
#742 = VERTEX_POINT('',#743);
#743 = CARTESIAN_POINT('',(14.570684810152,57.052129109701,25.));
#744 = LINE('',#745,#746);
#745 = CARTESIAN_POINT('',(15.107951987039,57.736497243245,25.));
#746 = VECTOR('',#747,1.);
#747 = DIRECTION('',(-0.61750126014,-0.786569891189,0.));
#748 = ORIENTED_EDGE('',*,*,#749,.T.);
#749 = EDGE_CURVE('',#742,#750,#752,.T.);
#750 = VERTEX_POINT('',#751);
#751 = CARTESIAN_POINT('',(14.401119437749,56.832929611206,25.));
#752 = LINE('',#753,#754);
#753 = CARTESIAN_POINT('',(14.570684810152,57.052129109701,25.));
#754 = VECTOR('',#755,1.);
#755 = DIRECTION('',(-0.611863004942,-0.790963755923,0.));
#756 = ORIENTED_EDGE('',*,*,#757,.T.);
#757 = EDGE_CURVE('',#750,#758,#760,.T.);
#758 = VERTEX_POINT('',#759);
#759 = CARTESIAN_POINT('',(13.717853211308,55.933362960815,25.));
#760 = LINE('',#761,#762);
#761 = CARTESIAN_POINT('',(14.401119437749,56.832929611206,25.));
#762 = VECTOR('',#763,1.);
#763 = DIRECTION('',(-0.604856305372,-0.796334634342,0.));
#764 = ORIENTED_EDGE('',*,*,#765,.T.);
#765 = EDGE_CURVE('',#758,#766,#768,.T.);
#766 = VERTEX_POINT('',#767);
#767 = CARTESIAN_POINT('',(13.057293680234,55.037450154622,25.));
#768 = LINE('',#769,#770);
#769 = CARTESIAN_POINT('',(13.717853211308,55.933362960815,25.));
#770 = VECTOR('',#771,1.);
#771 = DIRECTION('',(-0.593439631942,-0.804878502161,0.));
#772 = ORIENTED_EDGE('',*,*,#773,.T.);
#773 = EDGE_CURVE('',#766,#774,#776,.T.);
#774 = VERTEX_POINT('',#775);
#775 = CARTESIAN_POINT('',(12.418678785277,54.144870758057,25.));
#776 = LINE('',#777,#778);
#777 = CARTESIAN_POINT('',(13.057293680234,55.037450154622,25.));
#778 = VECTOR('',#779,1.);
#779 = DIRECTION('',(-0.58187645018,-0.813277195503,0.));
#780 = ORIENTED_EDGE('',*,*,#781,.T.);
#781 = EDGE_CURVE('',#774,#782,#784,.T.);
#782 = VERTEX_POINT('',#783);
#783 = CARTESIAN_POINT('',(11.80124749422,53.255273183187,25.));
#784 = LINE('',#785,#786);
#785 = CARTESIAN_POINT('',(12.418678785277,54.144870758057,25.));
#786 = VECTOR('',#787,1.);
#787 = DIRECTION('',(-0.570180971202,-0.821519117294,0.));
#788 = ORIENTED_EDGE('',*,*,#789,.T.);
#789 = EDGE_CURVE('',#782,#790,#792,.T.);
#790 = VERTEX_POINT('',#791);
#791 = CARTESIAN_POINT('',(11.2043158024,52.368336995443,25.));
#792 = LINE('',#793,#794);
#793 = CARTESIAN_POINT('',(11.80124749422,53.255273183187,25.));
#794 = VECTOR('',#795,1.);
#795 = DIRECTION('',(-0.558347665305,-0.829607066416,0.));
#796 = ORIENTED_EDGE('',*,*,#797,.T.);
#797 = EDGE_CURVE('',#790,#798,#800,.T.);
#798 = VERTEX_POINT('',#799);
#799 = CARTESIAN_POINT('',(10.627226408038,51.483741760254,25.));
#800 = LINE('',#801,#802);
#801 = CARTESIAN_POINT('',(11.2043158024,52.368336995443,25.));
#802 = VECTOR('',#803,1.);
#803 = DIRECTION('',(-0.546386982986,-0.837532844027,0.));
#804 = ORIENTED_EDGE('',*,*,#805,.T.);
#805 = EDGE_CURVE('',#798,#806,#808,.T.);
#806 = VERTEX_POINT('',#807);
#807 = CARTESIAN_POINT('',(10.069371306987,50.601144790649,25.));
#808 = LINE('',#809,#810);
#809 = CARTESIAN_POINT('',(10.627226408038,51.483741760254,25.));
#810 = VECTOR('',#811,1.);
#811 = DIRECTION('',(-0.53428423325,-0.845304890617,0.));
#812 = ORIENTED_EDGE('',*,*,#813,.T.);
#813 = EDGE_CURVE('',#806,#814,#816,.T.);
#814 = VERTEX_POINT('',#815);
#815 = CARTESIAN_POINT('',(9.530178441294,49.72025680542,25.));
#816 = LINE('',#817,#818);
#817 = CARTESIAN_POINT('',(10.069371306987,50.601144790649,25.));
#818 = VECTOR('',#819,1.);
#819 = DIRECTION('',(-0.522064903701,-0.852905760518,0.));
#820 = ORIENTED_EDGE('',*,*,#821,.T.);
#821 = EDGE_CURVE('',#814,#822,#824,.T.);
#822 = VERTEX_POINT('',#823);
#823 = CARTESIAN_POINT('',(9.009102455888,48.840748469035,25.));
#824 = LINE('',#825,#826);
#825 = CARTESIAN_POINT('',(9.530178441294,49.72025680542,25.));
#826 = VECTOR('',#827,1.);
#827 = DIRECTION('',(-0.5097197539,-0.860340497991,0.));
#828 = ORIENTED_EDGE('',*,*,#829,.T.);
#829 = EDGE_CURVE('',#822,#830,#832,.T.);
#830 = VERTEX_POINT('',#831);
#831 = CARTESIAN_POINT('',(8.50563907706,47.962308247884,25.));
#832 = LINE('',#833,#834);
#833 = CARTESIAN_POINT('',(9.009102455888,48.840748469035,25.));
#834 = VECTOR('',#835,1.);
#835 = DIRECTION('',(-0.497253518305,-0.867605289595,0.));
#836 = ORIENTED_EDGE('',*,*,#837,.T.);
#837 = EDGE_CURVE('',#830,#838,#840,.T.);
#838 = VERTEX_POINT('',#839);
#839 = CARTESIAN_POINT('',(8.019322031362,47.084615707397,25.));
#840 = LINE('',#841,#842);
#841 = CARTESIAN_POINT('',(8.50563907706,47.962308247884,25.));
#842 = VECTOR('',#843,1.);
#843 = DIRECTION('',(-0.484660288016,-0.874702466682,0.));
#844 = ORIENTED_EDGE('',*,*,#845,.T.);
#845 = EDGE_CURVE('',#838,#846,#848,.T.);
#846 = VERTEX_POINT('',#847);
#847 = CARTESIAN_POINT('',(7.549718937466,46.207359313965,25.));
#848 = LINE('',#849,#850);
#849 = CARTESIAN_POINT('',(8.019322031362,47.084615707397,25.));
#850 = VECTOR('',#851,1.);
#851 = DIRECTION('',(-0.471943639331,-0.881628720775,0.));
#852 = ORIENTED_EDGE('',*,*,#853,.T.);
#853 = EDGE_CURVE('',#846,#854,#856,.T.);
#854 = VERTEX_POINT('',#855);
#855 = CARTESIAN_POINT('',(7.09640357625,45.330236434937,25.));
#856 = LINE('',#857,#858);
#857 = CARTESIAN_POINT('',(7.549718937466,46.207359313965,25.));
#858 = VECTOR('',#859,1.);
#859 = DIRECTION('',(-0.459128135922,-0.888370055104,0.));
#860 = ORIENTED_EDGE('',*,*,#861,.T.);
#861 = EDGE_CURVE('',#854,#862,#864,.T.);
#862 = VERTEX_POINT('',#863);
#863 = CARTESIAN_POINT('',(6.659000053259,44.452926635742,25.));
#864 = LINE('',#865,#866);
#865 = CARTESIAN_POINT('',(7.09640357625,45.330236434937,25.));
#866 = VECTOR('',#867,1.);
#867 = DIRECTION('',(-0.446192088013,-0.894937216007,0.));
#868 = ORIENTED_EDGE('',*,*,#869,.T.);
#869 = EDGE_CURVE('',#862,#870,#872,.T.);
#870 = VERTEX_POINT('',#871);
#871 = CARTESIAN_POINT('',(6.237161230991,43.575113932292,25.));
#872 = LINE('',#873,#874);
#873 = CARTESIAN_POINT('',(6.659000053259,44.452926635742,25.));
#874 = VECTOR('',#875,1.);
#875 = DIRECTION('',(-0.433138871458,-0.901327198099,0.));
#876 = ORIENTED_EDGE('',*,*,#877,.T.);
#877 = EDGE_CURVE('',#870,#878,#880,.T.);
#878 = VERTEX_POINT('',#879);
#879 = CARTESIAN_POINT('',(5.830552296353,42.696495691935,25.));
#880 = LINE('',#881,#882);
#881 = CARTESIAN_POINT('',(6.237161230991,43.575113932292,25.));
#882 = VECTOR('',#883,1.);
#883 = DIRECTION('',(-0.419988515374,-0.907529419332,0.));
#884 = ORIENTED_EDGE('',*,*,#885,.T.);
#885 = EDGE_CURVE('',#878,#886,#888,.T.);
#886 = VERTEX_POINT('',#887);
#887 = CARTESIAN_POINT('',(5.438875409475,41.816755930583,25.));
#888 = LINE('',#889,#890);
#889 = CARTESIAN_POINT('',(5.830552296353,42.696495691935,25.));
#890 = VECTOR('',#891,1.);
#891 = DIRECTION('',(-0.406729284886,-0.913548733684,0.));
#892 = ORIENTED_EDGE('',*,*,#893,.T.);
#893 = EDGE_CURVE('',#886,#894,#896,.T.);
#894 = VERTEX_POINT('',#895);
#895 = CARTESIAN_POINT('',(5.061841973795,40.935574213664,25.));
#896 = LINE('',#897,#898);
#897 = CARTESIAN_POINT('',(5.438875409475,41.816755930583,25.));
#898 = VECTOR('',#899,1.);
#899 = DIRECTION('',(-0.393376371368,-0.919377523355,0.));
#900 = ORIENTED_EDGE('',*,*,#901,.T.);
#901 = EDGE_CURVE('',#894,#902,#904,.T.);
#902 = VERTEX_POINT('',#903);
#903 = CARTESIAN_POINT('',(4.699210636317,40.052634557088,25.));
#904 = LINE('',#905,#906);
#905 = CARTESIAN_POINT('',(5.061841973795,40.935574213664,25.));
#906 = VECTOR('',#907,1.);
#907 = DIRECTION('',(-0.379914736698,-0.925021509393,0.));
#908 = ORIENTED_EDGE('',*,*,#909,.T.);
#909 = EDGE_CURVE('',#902,#910,#912,.T.);
#910 = VERTEX_POINT('',#911);
#911 = CARTESIAN_POINT('',(4.350741071076,39.167607625326,25.));
#912 = LINE('',#913,#914);
#913 = CARTESIAN_POINT('',(4.699210636317,40.052634557088,25.));
#914 = VECTOR('',#915,1.);
#915 = DIRECTION('',(-0.366363052117,-0.930471984556,0.));
#916 = ORIENTED_EDGE('',*,*,#917,.T.);
#917 = EDGE_CURVE('',#910,#918,#920,.T.);
#918 = VERTEX_POINT('',#919);
#919 = CARTESIAN_POINT('',(4.01623274968,38.280190785726,25.));
#920 = LINE('',#921,#922);
#921 = CARTESIAN_POINT('',(4.350741071076,39.167607625326,25.));
#922 = VECTOR('',#923,1.);
#923 = DIRECTION('',(-0.352719448291,-0.935729122555,0.));
#924 = ORIENTED_EDGE('',*,*,#925,.T.);
#925 = EDGE_CURVE('',#918,#926,#928,.T.);
#926 = VERTEX_POINT('',#927);
#927 = CARTESIAN_POINT('',(3.695493103246,37.390036900838,25.));
#928 = LINE('',#929,#930);
#929 = CARTESIAN_POINT('',(4.01623274968,38.280190785726,25.));
#930 = VECTOR('',#931,1.);
#931 = DIRECTION('',(-0.338985405293,-0.940791632083,0.));
#932 = ORIENTED_EDGE('',*,*,#933,.T.);
#933 = EDGE_CURVE('',#926,#934,#936,.T.);
#934 = VERTEX_POINT('',#935);
#935 = CARTESIAN_POINT('',(3.388353698195,36.496827761332,25.));
#936 = LINE('',#937,#938);
#937 = CARTESIAN_POINT('',(3.695493103246,37.390036900838,25.));
#938 = VECTOR('',#939,1.);
#939 = DIRECTION('',(-0.325173279402,-0.945654449766,0.));
#940 = ORIENTED_EDGE('',*,*,#941,.T.);
#941 = EDGE_CURVE('',#934,#942,#944,.T.);
#942 = VERTEX_POINT('',#943);
#943 = CARTESIAN_POINT('',(3.094670236246,35.600220680237,25.));
#944 = LINE('',#945,#946);
#945 = CARTESIAN_POINT('',(3.388353698195,36.496827761332,25.));
#946 = VECTOR('',#947,1.);
#947 = DIRECTION('',(-0.311276876665,-0.950319265328,0.));
#948 = ORIENTED_EDGE('',*,*,#949,.T.);
#949 = EDGE_CURVE('',#942,#950,#952,.T.);
#950 = VERTEX_POINT('',#951);
#951 = CARTESIAN_POINT('',(2.814330000412,34.699884096781,25.));
#952 = LINE('',#953,#954);
#953 = CARTESIAN_POINT('',(3.094670236246,35.600220680237,25.));
#954 = VECTOR('',#955,1.);
#955 = DIRECTION('',(-0.297294267332,-0.954785901976,0.));
#956 = ORIENTED_EDGE('',*,*,#957,.T.);
#957 = EDGE_CURVE('',#950,#958,#960,.T.);
#958 = VERTEX_POINT('',#959);
#959 = CARTESIAN_POINT('',(2.547220787227,33.795459747314,25.));
#960 = LINE('',#961,#962);
#961 = CARTESIAN_POINT('',(2.814330000412,34.699884096781,25.));
#962 = VECTOR('',#963,1.);
#963 = DIRECTION('',(-0.283241716125,-0.959048554687,0.));
#964 = ORIENTED_EDGE('',*,*,#965,.T.);
#965 = EDGE_CURVE('',#958,#966,#968,.T.);
#966 = VERTEX_POINT('',#967);
#967 = CARTESIAN_POINT('',(2.293254785282,32.886604944865,25.));
#968 = LINE('',#969,#970);
#969 = CARTESIAN_POINT('',(2.547220787227,33.795459747314,25.));
#970 = VECTOR('',#971,1.);
#971 = DIRECTION('',(-0.269125451757,-0.963105129888,0.));
#972 = ORIENTED_EDGE('',*,*,#973,.T.);
#973 = EDGE_CURVE('',#966,#974,#976,.T.);
#974 = VERTEX_POINT('',#975);
#975 = CARTESIAN_POINT('',(2.052383082079,31.972968101501,25.));
#976 = LINE('',#977,#978);
#977 = CARTESIAN_POINT('',(2.293254785282,32.886604944865,25.));
#978 = VECTOR('',#979,1.);
#979 = DIRECTION('',(-0.254929737768,-0.966959579714,0.));
#980 = ORIENTED_EDGE('',*,*,#981,.T.);
#981 = EDGE_CURVE('',#974,#982,#984,.T.);
#982 = VERTEX_POINT('',#983);
#983 = CARTESIAN_POINT('',(1.824558048917,31.054182052612,25.));
#984 = LINE('',#985,#986);
#985 = CARTESIAN_POINT('',(2.052383082079,31.972968101501,25.));
#986 = VECTOR('',#987,1.);
#987 = DIRECTION('',(-0.240674443747,-0.970605899491,0.));
#988 = ORIENTED_EDGE('',*,*,#989,.T.);
#989 = EDGE_CURVE('',#982,#990,#992,.T.);
#990 = VERTEX_POINT('',#991);
#991 = CARTESIAN_POINT('',(1.609747462602,30.129872957865,25.));
#992 = LINE('',#993,#994);
#993 = CARTESIAN_POINT('',(1.824558048917,31.054182052612,25.));
#994 = VECTOR('',#995,1.);
#995 = DIRECTION('',(-0.226368513294,-0.974041732263,0.));
#996 = ORIENTED_EDGE('',*,*,#997,.T.);
#997 = EDGE_CURVE('',#990,#998,#1000,.T.);
#998 = VERTEX_POINT('',#999);
#999 = CARTESIAN_POINT('',(1.407959411028,29.199649175008,25.));
#1000 = LINE('',#1001,#1002);
#1001 = CARTESIAN_POINT('',(1.609747462602,30.129872957865,25.));
#1002 = VECTOR('',#1003,1.);
#1003 = DIRECTION('',(-0.211993736933,-0.977271024589,0.));
#1004 = ORIENTED_EDGE('',*,*,#1005,.T.);
#1005 = EDGE_CURVE('',#998,#1006,#1008,.T.);
#1006 = VERTEX_POINT('',#1007);
#1007 = CARTESIAN_POINT('',(1.219217772736,28.263145764669,25.));
#1008 = LINE('',#1009,#1010);
#1009 = CARTESIAN_POINT('',(1.407959411028,29.199649175008,25.));
#1010 = VECTOR('',#1011,1.);
#1011 = DIRECTION('',(-0.197566236014,-0.980289540078,0.));
#1012 = ORIENTED_EDGE('',*,*,#1013,.T.);
#1013 = EDGE_CURVE('',#1006,#1014,#1016,.T.);
#1014 = VERTEX_POINT('',#1015);
#1015 = CARTESIAN_POINT('',(1.043546811404,27.319951057434,25.));
#1016 = LINE('',#1017,#1018);
#1017 = CARTESIAN_POINT('',(1.219217772736,28.263145764669,25.));
#1018 = VECTOR('',#1019,1.);
#1019 = DIRECTION('',(-0.183102222259,-0.983093879649,0.));
#1020 = ORIENTED_EDGE('',*,*,#1021,.T.);
#1021 = EDGE_CURVE('',#1014,#1022,#1024,.T.);
#1022 = VERTEX_POINT('',#1023);
#1023 = CARTESIAN_POINT('',(0.881018676174,26.369657834371,25.));
#1024 = LINE('',#1025,#1026);
#1025 = CARTESIAN_POINT('',(1.043546811404,27.319951057434,25.));
#1026 = VECTOR('',#1027,1.);
#1027 = DIRECTION('',(-0.168581632686,-0.985687695531,0.));
#1028 = ORIENTED_EDGE('',*,*,#1029,.T.);
#1029 = EDGE_CURVE('',#1022,#1030,#1032,.T.);
#1030 = VERTEX_POINT('',#1031);
#1031 = CARTESIAN_POINT('',(0.731705580375,25.411856651306,25.));
#1032 = LINE('',#1033,#1034);
#1033 = CARTESIAN_POINT('',(0.881018676174,26.369657834371,25.));
#1034 = VECTOR('',#1035,1.);
#1035 = DIRECTION('',(-0.154031123949,-0.988065996204,0.));
#1036 = ORIENTED_EDGE('',*,*,#1037,.T.);
#1037 = EDGE_CURVE('',#1030,#1038,#1040,.T.);
#1038 = VERTEX_POINT('',#1039);
#1039 = CARTESIAN_POINT('',(0.595719855854,24.446093559265,25.));
#1040 = LINE('',#1041,#1042);
#1041 = CARTESIAN_POINT('',(0.731705580375,25.411856651306,25.));
#1042 = VECTOR('',#1043,1.);
#1043 = DIRECTION('',(-0.139431074732,-0.990231778625,0.));
#1044 = ORIENTED_EDGE('',*,*,#1045,.T.);
#1045 = EDGE_CURVE('',#1038,#1046,#1048,.T.);
#1046 = VERTEX_POINT('',#1047);
#1047 = CARTESIAN_POINT('',(0.473181858163,23.471947987874,25.));
#1048 = LINE('',#1049,#1050);
#1049 = CARTESIAN_POINT('',(0.595719855854,24.446093559265,25.));
#1050 = VECTOR('',#1051,1.);
#1051 = DIRECTION('',(-0.124806688196,-0.992181077516,0.));
#1052 = ORIENTED_EDGE('',*,*,#1053,.T.);
#1053 = EDGE_CURVE('',#1046,#1054,#1056,.T.);
#1054 = VERTEX_POINT('',#1055);
#1055 = CARTESIAN_POINT('',(0.364244037664,22.488957087199,25.));
#1056 = LINE('',#1057,#1058);
#1057 = CARTESIAN_POINT('',(0.473181858163,23.471947987874,25.));
#1058 = VECTOR('',#1059,1.);
#1059 = DIRECTION('',(-0.110148475903,-0.993915143891,0.));
#1060 = ORIENTED_EDGE('',*,*,#1061,.T.);
#1061 = EDGE_CURVE('',#1054,#1062,#1064,.T.);
#1062 = VERTEX_POINT('',#1063);
#1063 = CARTESIAN_POINT('',(0.269074892128,21.496646881104,25.));
#1064 = LINE('',#1065,#1066);
#1065 = CARTESIAN_POINT('',(0.364244037664,22.488957087199,25.));
#1066 = VECTOR('',#1067,1.);
#1067 = DIRECTION('',(-9.546858880974E-02,-0.995432442987,0.));
#1068 = ORIENTED_EDGE('',*,*,#1069,.T.);
#1069 = EDGE_CURVE('',#1062,#1070,#1072,.T.);
#1070 = VERTEX_POINT('',#1071);
#1071 = CARTESIAN_POINT('',(0.187866990437,20.494534492493,25.));
#1072 = LINE('',#1073,#1074);
#1073 = CARTESIAN_POINT('',(0.269074892128,21.496646881104,25.));
#1074 = VECTOR('',#1075,1.);
#1075 = DIRECTION('',(-8.077194197578E-02,-0.996732608772,0.));
#1076 = ORIENTED_EDGE('',*,*,#1077,.T.);
#1077 = EDGE_CURVE('',#1070,#1078,#1080,.T.);
#1078 = VERTEX_POINT('',#1079);
#1079 = CARTESIAN_POINT('',(0.120844996283,19.48212146759,25.));
#1080 = LINE('',#1081,#1082);
#1081 = CARTESIAN_POINT('',(0.187866990437,20.494534492493,25.));
#1082 = VECTOR('',#1083,1.);
#1083 = DIRECTION('',(-6.605566347492E-02,-0.997815939602,0.));
#1084 = ORIENTED_EDGE('',*,*,#1085,.T.);
#1085 = EDGE_CURVE('',#1078,#1086,#1088,.T.);
#1086 = VERTEX_POINT('',#1087);
#1087 = CARTESIAN_POINT('',(6.82656681744E-02,18.45889266332,25.));
#1088 = LINE('',#1089,#1090);
#1089 = CARTESIAN_POINT('',(0.120844996283,19.48212146759,25.));
#1090 = VECTOR('',#1091,1.);
#1091 = DIRECTION('',(-5.131799208662E-02,-0.998682363761,0.));
#1092 = ORIENTED_EDGE('',*,*,#1093,.T.);
#1093 = EDGE_CURVE('',#1086,#1094,#1096,.T.);
#1094 = VERTEX_POINT('',#1095);
#1095 = CARTESIAN_POINT('',(3.038576461877E-02,17.424296220144,25.));
#1096 = LINE('',#1097,#1098);
#1097 = CARTESIAN_POINT('',(6.82656681744E-02,18.45889266332,25.));
#1098 = VECTOR('',#1099,1.);
#1099 = DIRECTION('',(-3.658870062316E-02,-0.999330409318,0.));
#1100 = ORIENTED_EDGE('',*,*,#1101,.T.);
#1101 = EDGE_CURVE('',#1094,#1102,#1104,.T.);
#1102 = VERTEX_POINT('',#1103);
#1103 = CARTESIAN_POINT('',(7.518210046946E-03,16.377795855204,25.));
#1104 = LINE('',#1105,#1106);
#1105 = CARTESIAN_POINT('',(3.038576461877E-02,17.424296220144,25.));
#1106 = VECTOR('',#1107,1.);
#1107 = DIRECTION('',(-2.184623897234E-02,-0.999761342443,0.));
#1108 = ORIENTED_EDGE('',*,*,#1109,.T.);
#1109 = EDGE_CURVE('',#1102,#1110,#1112,.T.);
#1110 = VERTEX_POINT('',#1111);
#1111 = CARTESIAN_POINT('',(0.,15.337124506632,25.));
#1112 = LINE('',#1113,#1114);
#1113 = CARTESIAN_POINT('',(7.518210046946E-03,16.377795855204,25.));
#1114 = VECTOR('',#1115,1.);
#1115 = DIRECTION('',(-7.224196064145E-03,-0.999973905155,0.));
#1116 = ORIENTED_EDGE('',*,*,#1117,.T.);
#1117 = EDGE_CURVE('',#1110,#1118,#1120,.T.);
#1118 = VERTEX_POINT('',#1119);
#1119 = CARTESIAN_POINT('',(0.,0.,25.));
#1120 = LINE('',#1121,#1122);
#1121 = CARTESIAN_POINT('',(0.,15.337124506632,25.));
#1122 = VECTOR('',#1123,1.);
#1123 = DIRECTION('',(0.,-1.,0.));
#1124 = ORIENTED_EDGE('',*,*,#1125,.T.);
#1125 = EDGE_CURVE('',#1118,#64,#1126,.T.);
#1126 = LINE('',#1127,#1128);
#1127 = CARTESIAN_POINT('',(0.,0.,25.));
#1128 = VECTOR('',#1129,1.);
#1129 = DIRECTION('',(1.,0.,0.));
#1130 = FACE_BOUND('',#1131,.T.);
#1131 = EDGE_LOOP('',(#1132));
#1132 = ORIENTED_EDGE('',*,*,#1133,.T.);
#1133 = EDGE_CURVE('',#1134,#1134,#1136,.T.);
#1134 = VERTEX_POINT('',#1135);
#1135 = CARTESIAN_POINT('',(4.699996626466,4.699987598136,25.));
#1136 = CIRCLE('',#1137,1.700000037619);
#1137 = AXIS2_PLACEMENT_3D('',#1138,#1139,#1140);
#1138 = CARTESIAN_POINT('',(2.999996588847,4.699987598136,25.));
#1139 = DIRECTION('',(0.,0.,-1.));
#1140 = DIRECTION('',(1.,0.,0.));
#1141 = FACE_BOUND('',#1142,.T.);
#1142 = EDGE_LOOP('',(#1143));
#1143 = ORIENTED_EDGE('',*,*,#1144,.T.);
#1144 = EDGE_CURVE('',#1145,#1145,#1147,.T.);
#1145 = VERTEX_POINT('',#1146);
#1146 = CARTESIAN_POINT('',(24.699996906597,4.699987598136,25.));
#1147 = CIRCLE('',#1148,1.700000036113);
#1148 = AXIS2_PLACEMENT_3D('',#1149,#1150,#1151);
#1149 = CARTESIAN_POINT('',(22.999996870484,4.699987598136,25.));
#1150 = DIRECTION('',(0.,0.,-1.));
#1151 = DIRECTION('',(1.,0.,0.));
#1152 = PLANE('',#1153);
#1153 = AXIS2_PLACEMENT_3D('',#1154,#1155,#1156);
#1154 = CARTESIAN_POINT('',(16.751783317443,30.737853713096,25.));
#1155 = DIRECTION('',(0.,0.,1.));
#1156 = DIRECTION('',(1.,0.,0.));
#1157 = ADVANCED_FACE('',(#1158),#1169,.T.);
#1158 = FACE_BOUND('',#1159,.T.);
#1159 = EDGE_LOOP('',(#1160,#1161,#1162,#1163));
#1160 = ORIENTED_EDGE('',*,*,#123,.T.);
#1161 = ORIENTED_EDGE('',*,*,#61,.T.);
#1162 = ORIENTED_EDGE('',*,*,#1125,.F.);
#1163 = ORIENTED_EDGE('',*,*,#1164,.F.);
#1164 = EDGE_CURVE('',#124,#1118,#1165,.T.);
#1165 = LINE('',#1166,#1167);
#1166 = CARTESIAN_POINT('',(0.,0.,0.));
#1167 = VECTOR('',#1168,1.);
#1168 = DIRECTION('',(0.,0.,1.));
#1169 = PLANE('',#1170);
#1170 = AXIS2_PLACEMENT_3D('',#1171,#1172,#1173);
#1171 = CARTESIAN_POINT('',(14.,0.,12.5));
#1172 = DIRECTION('',(-0.,-1.,-0.));
#1173 = DIRECTION('',(0.,0.,-1.));
#1174 = ADVANCED_FACE('',(#1175),#1186,.F.);
#1175 = FACE_BOUND('',#1176,.F.);
#1176 = EDGE_LOOP('',(#1177,#1178,#1179,#1185));
#1177 = ORIENTED_EDGE('',*,*,#101,.T.);
#1178 = ORIENTED_EDGE('',*,*,#645,.T.);
#1179 = ORIENTED_EDGE('',*,*,#1180,.F.);
#1180 = EDGE_CURVE('',#135,#646,#1181,.T.);
#1181 = LINE('',#1182,#1183);
#1182 = CARTESIAN_POINT('',(24.739680472107,68.043123881022,0.));
#1183 = VECTOR('',#1184,1.);
#1184 = DIRECTION('',(0.,0.,1.));
#1185 = ORIENTED_EDGE('',*,*,#134,.F.);
#1186 = PLANE('',#1187);
#1187 = AXIS2_PLACEMENT_3D('',#1188,#1189,#1190);
#1188 = CARTESIAN_POINT('',(25.818322962001,69.023520151774,0.));
#1189 = DIRECTION('',(0.672602245212,-0.740004202512,0.));
#1190 = DIRECTION('',(-0.740004202512,-0.672602245212,0.));
#1191 = ADVANCED_FACE('',(#1192),#1203,.T.);
#1192 = FACE_BOUND('',#1193,.T.);
#1193 = EDGE_LOOP('',(#1194,#1200,#1201,#1202));
#1194 = ORIENTED_EDGE('',*,*,#1195,.F.);
#1195 = EDGE_CURVE('',#599,#1110,#1196,.T.);
#1196 = LINE('',#1197,#1198);
#1197 = CARTESIAN_POINT('',(0.,15.337124506632,0.));
#1198 = VECTOR('',#1199,1.);
#1199 = DIRECTION('',(0.,0.,1.));
#1200 = ORIENTED_EDGE('',*,*,#606,.T.);
#1201 = ORIENTED_EDGE('',*,*,#1164,.T.);
#1202 = ORIENTED_EDGE('',*,*,#1117,.F.);
#1203 = PLANE('',#1204);
#1204 = AXIS2_PLACEMENT_3D('',#1205,#1206,#1207);
#1205 = CARTESIAN_POINT('',(0.,7.668562253316,12.5));
#1206 = DIRECTION('',(-1.,-0.,-0.));
#1207 = DIRECTION('',(0.,0.,-1.));
#1208 = ADVANCED_FACE('',(#1209),#1220,.F.);
#1209 = FACE_BOUND('',#1210,.F.);
#1210 = EDGE_LOOP('',(#1211,#1217,#1218,#1219));
#1211 = ORIENTED_EDGE('',*,*,#1212,.T.);
#1212 = EDGE_CURVE('',#591,#1102,#1213,.T.);
#1213 = LINE('',#1214,#1215);
#1214 = CARTESIAN_POINT('',(7.518210046946E-03,16.377795855204,0.));
#1215 = VECTOR('',#1216,1.);
#1216 = DIRECTION('',(0.,0.,1.));
#1217 = ORIENTED_EDGE('',*,*,#1109,.T.);
#1218 = ORIENTED_EDGE('',*,*,#1195,.F.);
#1219 = ORIENTED_EDGE('',*,*,#598,.F.);
#1220 = PLANE('',#1221);
#1221 = AXIS2_PLACEMENT_3D('',#1222,#1223,#1224);
#1222 = CARTESIAN_POINT('',(7.518210046946E-03,16.377795855204,0.));
#1223 = DIRECTION('',(0.999973905155,-7.224196064145E-03,0.));
#1224 = DIRECTION('',(-7.224196064145E-03,-0.999973905155,0.));
#1225 = ADVANCED_FACE('',(#1226),#1237,.F.);
#1226 = FACE_BOUND('',#1227,.F.);
#1227 = EDGE_LOOP('',(#1228,#1234,#1235,#1236));
#1228 = ORIENTED_EDGE('',*,*,#1229,.T.);
#1229 = EDGE_CURVE('',#583,#1094,#1230,.T.);
#1230 = LINE('',#1231,#1232);
#1231 = CARTESIAN_POINT('',(3.038576461877E-02,17.424296220144,0.));
#1232 = VECTOR('',#1233,1.);
#1233 = DIRECTION('',(0.,0.,1.));
#1234 = ORIENTED_EDGE('',*,*,#1101,.T.);
#1235 = ORIENTED_EDGE('',*,*,#1212,.F.);
#1236 = ORIENTED_EDGE('',*,*,#590,.F.);
#1237 = PLANE('',#1238);
#1238 = AXIS2_PLACEMENT_3D('',#1239,#1240,#1241);
#1239 = CARTESIAN_POINT('',(3.038576461877E-02,17.424296220144,0.));
#1240 = DIRECTION('',(0.999761342443,-2.184623897234E-02,0.));
#1241 = DIRECTION('',(-2.184623897234E-02,-0.999761342443,0.));
#1242 = ADVANCED_FACE('',(#1243),#1254,.F.);
#1243 = FACE_BOUND('',#1244,.F.);
#1244 = EDGE_LOOP('',(#1245,#1251,#1252,#1253));
#1245 = ORIENTED_EDGE('',*,*,#1246,.T.);
#1246 = EDGE_CURVE('',#575,#1086,#1247,.T.);
#1247 = LINE('',#1248,#1249);
#1248 = CARTESIAN_POINT('',(6.82656681744E-02,18.45889266332,0.));
#1249 = VECTOR('',#1250,1.);
#1250 = DIRECTION('',(0.,0.,1.));
#1251 = ORIENTED_EDGE('',*,*,#1093,.T.);
#1252 = ORIENTED_EDGE('',*,*,#1229,.F.);
#1253 = ORIENTED_EDGE('',*,*,#582,.F.);
#1254 = PLANE('',#1255);
#1255 = AXIS2_PLACEMENT_3D('',#1256,#1257,#1258);
#1256 = CARTESIAN_POINT('',(6.82656681744E-02,18.45889266332,0.));
#1257 = DIRECTION('',(0.999330409318,-3.658870062316E-02,0.));
#1258 = DIRECTION('',(-3.658870062316E-02,-0.999330409318,0.));
#1259 = ADVANCED_FACE('',(#1260),#1271,.F.);
#1260 = FACE_BOUND('',#1261,.F.);
#1261 = EDGE_LOOP('',(#1262,#1268,#1269,#1270));
#1262 = ORIENTED_EDGE('',*,*,#1263,.T.);
#1263 = EDGE_CURVE('',#567,#1078,#1264,.T.);
#1264 = LINE('',#1265,#1266);
#1265 = CARTESIAN_POINT('',(0.120844996283,19.48212146759,0.));
#1266 = VECTOR('',#1267,1.);
#1267 = DIRECTION('',(0.,0.,1.));
#1268 = ORIENTED_EDGE('',*,*,#1085,.T.);
#1269 = ORIENTED_EDGE('',*,*,#1246,.F.);
#1270 = ORIENTED_EDGE('',*,*,#574,.F.);
#1271 = PLANE('',#1272);
#1272 = AXIS2_PLACEMENT_3D('',#1273,#1274,#1275);
#1273 = CARTESIAN_POINT('',(0.120844996283,19.48212146759,0.));
#1274 = DIRECTION('',(0.998682363761,-5.131799208662E-02,0.));
#1275 = DIRECTION('',(-5.131799208662E-02,-0.998682363761,0.));
#1276 = ADVANCED_FACE('',(#1277),#1288,.F.);
#1277 = FACE_BOUND('',#1278,.F.);
#1278 = EDGE_LOOP('',(#1279,#1280,#1281,#1287));
#1279 = ORIENTED_EDGE('',*,*,#1180,.T.);
#1280 = ORIENTED_EDGE('',*,*,#653,.T.);
#1281 = ORIENTED_EDGE('',*,*,#1282,.F.);
#1282 = EDGE_CURVE('',#143,#654,#1283,.T.);
#1283 = LINE('',#1284,#1285);
#1284 = CARTESIAN_POINT('',(23.700009815511,67.071259180705,0.));
#1285 = VECTOR('',#1286,1.);
#1286 = DIRECTION('',(0.,0.,1.));
#1287 = ORIENTED_EDGE('',*,*,#142,.F.);
#1288 = PLANE('',#1289);
#1289 = AXIS2_PLACEMENT_3D('',#1290,#1291,#1292);
#1290 = CARTESIAN_POINT('',(24.739680472107,68.043123881022,0.));
#1291 = DIRECTION('',(0.682883372496,-0.730527411922,0.));
#1292 = DIRECTION('',(-0.730527411922,-0.682883372496,0.));
#1293 = ADVANCED_FACE('',(#1294),#1305,.F.);
#1294 = FACE_BOUND('',#1295,.F.);
#1295 = EDGE_LOOP('',(#1296,#1302,#1303,#1304));
#1296 = ORIENTED_EDGE('',*,*,#1297,.T.);
#1297 = EDGE_CURVE('',#559,#1070,#1298,.T.);
#1298 = LINE('',#1299,#1300);
#1299 = CARTESIAN_POINT('',(0.187866990437,20.494534492493,0.));
#1300 = VECTOR('',#1301,1.);
#1301 = DIRECTION('',(0.,0.,1.));
#1302 = ORIENTED_EDGE('',*,*,#1077,.T.);
#1303 = ORIENTED_EDGE('',*,*,#1263,.F.);
#1304 = ORIENTED_EDGE('',*,*,#566,.F.);
#1305 = PLANE('',#1306);
#1306 = AXIS2_PLACEMENT_3D('',#1307,#1308,#1309);
#1307 = CARTESIAN_POINT('',(0.187866990437,20.494534492493,0.));
#1308 = DIRECTION('',(0.997815939602,-6.605566347492E-02,0.));
#1309 = DIRECTION('',(-6.605566347492E-02,-0.997815939602,0.));
#1310 = ADVANCED_FACE('',(#1311),#1322,.F.);
#1311 = FACE_BOUND('',#1312,.F.);
#1312 = EDGE_LOOP('',(#1313,#1314,#1315,#1321));
#1313 = ORIENTED_EDGE('',*,*,#1282,.T.);
#1314 = ORIENTED_EDGE('',*,*,#661,.T.);
#1315 = ORIENTED_EDGE('',*,*,#1316,.F.);
#1316 = EDGE_CURVE('',#151,#662,#1317,.T.);
#1317 = LINE('',#1318,#1319);
#1318 = CARTESIAN_POINT('',(22.697624602336,66.107610066732,0.));
#1319 = VECTOR('',#1320,1.);
#1320 = DIRECTION('',(0.,0.,1.));
#1321 = ORIENTED_EDGE('',*,*,#150,.F.);
#1322 = PLANE('',#1323);
#1323 = AXIS2_PLACEMENT_3D('',#1324,#1325,#1326);
#1324 = CARTESIAN_POINT('',(23.700009815511,67.071259180705,0.));
#1325 = DIRECTION('',(0.693040394857,-0.72089875232,0.));
#1326 = DIRECTION('',(-0.72089875232,-0.693040394857,0.));
#1327 = ADVANCED_FACE('',(#1328),#1339,.F.);
#1328 = FACE_BOUND('',#1329,.F.);
#1329 = EDGE_LOOP('',(#1330,#1336,#1337,#1338));
#1330 = ORIENTED_EDGE('',*,*,#1331,.T.);
#1331 = EDGE_CURVE('',#551,#1062,#1332,.T.);
#1332 = LINE('',#1333,#1334);
#1333 = CARTESIAN_POINT('',(0.269074892128,21.496646881104,0.));
#1334 = VECTOR('',#1335,1.);
#1335 = DIRECTION('',(0.,0.,1.));
#1336 = ORIENTED_EDGE('',*,*,#1069,.T.);
#1337 = ORIENTED_EDGE('',*,*,#1297,.F.);
#1338 = ORIENTED_EDGE('',*,*,#558,.F.);
#1339 = PLANE('',#1340);
#1340 = AXIS2_PLACEMENT_3D('',#1341,#1342,#1343);
#1341 = CARTESIAN_POINT('',(0.269074892128,21.496646881104,0.));
#1342 = DIRECTION('',(0.996732608772,-8.077194197578E-02,0.));
#1343 = DIRECTION('',(-8.077194197578E-02,-0.996732608772,0.));
#1344 = ADVANCED_FACE('',(#1345),#1356,.F.);
#1345 = FACE_BOUND('',#1346,.F.);
#1346 = EDGE_LOOP('',(#1347,#1348,#1349,#1355));
#1347 = ORIENTED_EDGE('',*,*,#1316,.T.);
#1348 = ORIENTED_EDGE('',*,*,#669,.T.);
#1349 = ORIENTED_EDGE('',*,*,#1350,.F.);
#1350 = EDGE_CURVE('',#159,#670,#1351,.T.);
#1351 = LINE('',#1352,#1353);
#1352 = CARTESIAN_POINT('',(21.73084460491,65.151727040609,0.));
#1353 = VECTOR('',#1354,1.);
#1354 = DIRECTION('',(0.,0.,1.));
#1355 = ORIENTED_EDGE('',*,*,#158,.F.);
#1356 = PLANE('',#1357);
#1357 = AXIS2_PLACEMENT_3D('',#1358,#1359,#1360);
#1358 = CARTESIAN_POINT('',(22.697624602336,66.107610066732,0.));
#1359 = DIRECTION('',(0.703087858762,-0.711102990333,0.));
#1360 = DIRECTION('',(-0.711102990333,-0.703087858762,0.));
#1361 = ADVANCED_FACE('',(#1362),#1373,.F.);
#1362 = FACE_BOUND('',#1363,.F.);
#1363 = EDGE_LOOP('',(#1364,#1370,#1371,#1372));
#1364 = ORIENTED_EDGE('',*,*,#1365,.T.);
#1365 = EDGE_CURVE('',#543,#1054,#1366,.T.);
#1366 = LINE('',#1367,#1368);
#1367 = CARTESIAN_POINT('',(0.364244037664,22.488957087199,0.));
#1368 = VECTOR('',#1369,1.);
#1369 = DIRECTION('',(0.,0.,1.));
#1370 = ORIENTED_EDGE('',*,*,#1061,.T.);
#1371 = ORIENTED_EDGE('',*,*,#1331,.F.);
#1372 = ORIENTED_EDGE('',*,*,#550,.F.);
#1373 = PLANE('',#1374);
#1374 = AXIS2_PLACEMENT_3D('',#1375,#1376,#1377);
#1375 = CARTESIAN_POINT('',(0.364244037664,22.488957087199,0.));
#1376 = DIRECTION('',(0.995432442987,-9.546858880974E-02,0.));
#1377 = DIRECTION('',(-9.546858880974E-02,-0.995432442987,0.));
#1378 = ADVANCED_FACE('',(#1379),#1390,.F.);
#1379 = FACE_BOUND('',#1380,.F.);
#1380 = EDGE_LOOP('',(#1381,#1382,#1383,#1389));
#1381 = ORIENTED_EDGE('',*,*,#1350,.T.);
#1382 = ORIENTED_EDGE('',*,*,#677,.T.);
#1383 = ORIENTED_EDGE('',*,*,#1384,.F.);
#1384 = EDGE_CURVE('',#167,#678,#1385,.T.);
#1385 = LINE('',#1386,#1387);
#1386 = CARTESIAN_POINT('',(20.798079974553,64.203191757202,0.));
#1387 = VECTOR('',#1388,1.);
#1388 = DIRECTION('',(0.,0.,1.));
#1389 = ORIENTED_EDGE('',*,*,#166,.F.);
#1390 = PLANE('',#1391);
#1391 = AXIS2_PLACEMENT_3D('',#1392,#1393,#1394);
#1392 = CARTESIAN_POINT('',(21.73084460491,65.151727040609,0.));
#1393 = DIRECTION('',(0.71300929863,-0.701154576443,0.));
#1394 = DIRECTION('',(-0.701154576443,-0.71300929863,0.));
#1395 = ADVANCED_FACE('',(#1396),#1407,.F.);
#1396 = FACE_BOUND('',#1397,.F.);
#1397 = EDGE_LOOP('',(#1398,#1404,#1405,#1406));
#1398 = ORIENTED_EDGE('',*,*,#1399,.T.);
#1399 = EDGE_CURVE('',#535,#1046,#1400,.T.);
#1400 = LINE('',#1401,#1402);
#1401 = CARTESIAN_POINT('',(0.473181858163,23.471947987874,0.));
#1402 = VECTOR('',#1403,1.);
#1403 = DIRECTION('',(0.,0.,1.));
#1404 = ORIENTED_EDGE('',*,*,#1053,.T.);
#1405 = ORIENTED_EDGE('',*,*,#1365,.F.);
#1406 = ORIENTED_EDGE('',*,*,#542,.F.);
#1407 = PLANE('',#1408);
#1408 = AXIS2_PLACEMENT_3D('',#1409,#1410,#1411);
#1409 = CARTESIAN_POINT('',(0.473181858163,23.471947987874,0.));
#1410 = DIRECTION('',(0.993915143891,-0.110148475903,0.));
#1411 = DIRECTION('',(-0.110148475903,-0.993915143891,0.));
#1412 = ADVANCED_FACE('',(#1413),#1424,.F.);
#1413 = FACE_BOUND('',#1414,.F.);
#1414 = EDGE_LOOP('',(#1415,#1416,#1417,#1423));
#1415 = ORIENTED_EDGE('',*,*,#1384,.T.);
#1416 = ORIENTED_EDGE('',*,*,#685,.T.);
#1417 = ORIENTED_EDGE('',*,*,#1418,.F.);
#1418 = EDGE_CURVE('',#175,#686,#1419,.T.);
#1419 = LINE('',#1420,#1421);
#1420 = CARTESIAN_POINT('',(19.897859998536,63.261608123779,0.));
#1421 = VECTOR('',#1422,1.);
#1422 = DIRECTION('',(0.,0.,1.));
#1423 = ORIENTED_EDGE('',*,*,#174,.F.);
#1424 = PLANE('',#1425);
#1425 = AXIS2_PLACEMENT_3D('',#1426,#1427,#1428);
#1426 = CARTESIAN_POINT('',(20.798079974553,64.203191757202,0.));
#1427 = DIRECTION('',(0.722804892707,-0.691052159448,0.));
#1428 = DIRECTION('',(-0.691052159448,-0.722804892707,0.));
#1429 = ADVANCED_FACE('',(#1430),#1441,.F.);
#1430 = FACE_BOUND('',#1431,.F.);
#1431 = EDGE_LOOP('',(#1432,#1438,#1439,#1440));
#1432 = ORIENTED_EDGE('',*,*,#1433,.T.);
#1433 = EDGE_CURVE('',#527,#1038,#1434,.T.);
#1434 = LINE('',#1435,#1436);
#1435 = CARTESIAN_POINT('',(0.595719855854,24.446093559265,0.));
#1436 = VECTOR('',#1437,1.);
#1437 = DIRECTION('',(0.,0.,1.));
#1438 = ORIENTED_EDGE('',*,*,#1045,.T.);
#1439 = ORIENTED_EDGE('',*,*,#1399,.F.);
#1440 = ORIENTED_EDGE('',*,*,#534,.F.);
#1441 = PLANE('',#1442);
#1442 = AXIS2_PLACEMENT_3D('',#1443,#1444,#1445);
#1443 = CARTESIAN_POINT('',(0.595719855854,24.446093559265,0.));
#1444 = DIRECTION('',(0.992181077516,-0.124806688196,0.));
#1445 = DIRECTION('',(-0.124806688196,-0.992181077516,0.));
#1446 = ADVANCED_FACE('',(#1447),#1458,.F.);
#1447 = FACE_BOUND('',#1448,.F.);
#1448 = EDGE_LOOP('',(#1449,#1450,#1451,#1457));
#1449 = ORIENTED_EDGE('',*,*,#1418,.T.);
#1450 = ORIENTED_EDGE('',*,*,#693,.T.);
#1451 = ORIENTED_EDGE('',*,*,#1452,.F.);
#1452 = EDGE_CURVE('',#183,#694,#1453,.T.);
#1453 = LINE('',#1454,#1455);
#1454 = CARTESIAN_POINT('',(19.028794072781,62.326580047607,0.));
#1455 = VECTOR('',#1456,1.);
#1456 = DIRECTION('',(0.,0.,1.));
#1457 = ORIENTED_EDGE('',*,*,#182,.F.);
#1458 = PLANE('',#1459);
#1459 = AXIS2_PLACEMENT_3D('',#1460,#1461,#1462);
#1460 = CARTESIAN_POINT('',(19.897859998536,63.261608123779,0.));
#1461 = DIRECTION('',(0.732470933032,-0.680798305127,0.));
#1462 = DIRECTION('',(-0.680798305127,-0.732470933032,0.));
#1463 = ADVANCED_FACE('',(#1464),#1475,.F.);
#1464 = FACE_BOUND('',#1465,.F.);
#1465 = EDGE_LOOP('',(#1466,#1472,#1473,#1474));
#1466 = ORIENTED_EDGE('',*,*,#1467,.T.);
#1467 = EDGE_CURVE('',#519,#1030,#1468,.T.);
#1468 = LINE('',#1469,#1470);
#1469 = CARTESIAN_POINT('',(0.731705580375,25.411856651306,0.));
#1470 = VECTOR('',#1471,1.);
#1471 = DIRECTION('',(0.,0.,1.));
#1472 = ORIENTED_EDGE('',*,*,#1037,.T.);
#1473 = ORIENTED_EDGE('',*,*,#1433,.F.);
#1474 = ORIENTED_EDGE('',*,*,#526,.F.);
#1475 = PLANE('',#1476);
#1476 = AXIS2_PLACEMENT_3D('',#1477,#1478,#1479);
#1477 = CARTESIAN_POINT('',(0.731705580375,25.411856651306,0.));
#1478 = DIRECTION('',(0.990231778625,-0.139431074732,0.));
#1479 = DIRECTION('',(-0.139431074732,-0.990231778625,0.));
#1480 = ADVANCED_FACE('',(#1481),#1492,.F.);
#1481 = FACE_BOUND('',#1482,.F.);
#1482 = EDGE_LOOP('',(#1483,#1484,#1485,#1491));
#1483 = ORIENTED_EDGE('',*,*,#1452,.T.);
#1484 = ORIENTED_EDGE('',*,*,#701,.T.);
#1485 = ORIENTED_EDGE('',*,*,#1486,.F.);
#1486 = EDGE_CURVE('',#191,#702,#1487,.T.);
#1487 = LINE('',#1488,#1489);
#1488 = CARTESIAN_POINT('',(18.189581972208,61.397724787394,0.));
#1489 = VECTOR('',#1490,1.);
#1490 = DIRECTION('',(0.,0.,1.));
#1491 = ORIENTED_EDGE('',*,*,#190,.F.);
#1492 = PLANE('',#1493);
#1493 = AXIS2_PLACEMENT_3D('',#1494,#1495,#1496);
#1494 = CARTESIAN_POINT('',(19.028794072781,62.326580047607,0.));
#1495 = DIRECTION('',(0.742004861074,-0.670394500382,0.));
#1496 = DIRECTION('',(-0.670394500382,-0.742004861074,0.));
#1497 = ADVANCED_FACE('',(#1498),#1509,.F.);
#1498 = FACE_BOUND('',#1499,.F.);
#1499 = EDGE_LOOP('',(#1500,#1506,#1507,#1508));
#1500 = ORIENTED_EDGE('',*,*,#1501,.T.);
#1501 = EDGE_CURVE('',#511,#1022,#1502,.T.);
#1502 = LINE('',#1503,#1504);
#1503 = CARTESIAN_POINT('',(0.881018676174,26.369657834371,0.));
#1504 = VECTOR('',#1505,1.);
#1505 = DIRECTION('',(0.,0.,1.));
#1506 = ORIENTED_EDGE('',*,*,#1029,.T.);
#1507 = ORIENTED_EDGE('',*,*,#1467,.F.);
#1508 = ORIENTED_EDGE('',*,*,#518,.F.);
#1509 = PLANE('',#1510);
#1510 = AXIS2_PLACEMENT_3D('',#1511,#1512,#1513);
#1511 = CARTESIAN_POINT('',(0.881018676174,26.369657834371,0.));
#1512 = DIRECTION('',(0.988065996204,-0.154031123949,0.));
#1513 = DIRECTION('',(-0.154031123949,-0.988065996204,0.));
#1514 = ADVANCED_FACE('',(#1515),#1526,.F.);
#1515 = FACE_BOUND('',#1516,.F.);
#1516 = EDGE_LOOP('',(#1517,#1518,#1519,#1525));
#1517 = ORIENTED_EDGE('',*,*,#1486,.T.);
#1518 = ORIENTED_EDGE('',*,*,#709,.T.);
#1519 = ORIENTED_EDGE('',*,*,#1520,.F.);
#1520 = EDGE_CURVE('',#199,#710,#1521,.T.);
#1521 = LINE('',#1522,#1523);
#1522 = CARTESIAN_POINT('',(17.379003580387,60.474659601847,0.));
#1523 = VECTOR('',#1524,1.);
#1524 = DIRECTION('',(0.,0.,1.));
#1525 = ORIENTED_EDGE('',*,*,#198,.F.);
#1526 = PLANE('',#1527);
#1527 = AXIS2_PLACEMENT_3D('',#1528,#1529,#1530);
#1528 = CARTESIAN_POINT('',(18.189581972208,61.397724787394,0.));
#1529 = DIRECTION('',(0.751407075949,-0.659838924446,0.));
#1530 = DIRECTION('',(-0.659838924446,-0.751407075949,0.));
#1531 = ADVANCED_FACE('',(#1532),#1543,.F.);
#1532 = FACE_BOUND('',#1533,.F.);
#1533 = EDGE_LOOP('',(#1534,#1540,#1541,#1542));
#1534 = ORIENTED_EDGE('',*,*,#1535,.T.);
#1535 = EDGE_CURVE('',#503,#1014,#1536,.T.);
#1536 = LINE('',#1537,#1538);
#1537 = CARTESIAN_POINT('',(1.043546811404,27.319951057434,0.));
#1538 = VECTOR('',#1539,1.);
#1539 = DIRECTION('',(0.,0.,1.));
#1540 = ORIENTED_EDGE('',*,*,#1021,.T.);
#1541 = ORIENTED_EDGE('',*,*,#1501,.F.);
#1542 = ORIENTED_EDGE('',*,*,#510,.F.);
#1543 = PLANE('',#1544);
#1544 = AXIS2_PLACEMENT_3D('',#1545,#1546,#1547);
#1545 = CARTESIAN_POINT('',(1.043546811404,27.319951057434,0.));
#1546 = DIRECTION('',(0.985687695531,-0.168581632686,0.));
#1547 = DIRECTION('',(-0.168581632686,-0.985687695531,0.));
#1548 = ADVANCED_FACE('',(#1549),#1560,.F.);
#1549 = FACE_BOUND('',#1550,.F.);
#1550 = EDGE_LOOP('',(#1551,#1552,#1553,#1559));
#1551 = ORIENTED_EDGE('',*,*,#1520,.T.);
#1552 = ORIENTED_EDGE('',*,*,#717,.T.);
#1553 = ORIENTED_EDGE('',*,*,#1554,.F.);
#1554 = EDGE_CURVE('',#207,#718,#1555,.T.);
#1555 = LINE('',#1556,#1557);
#1556 = CARTESIAN_POINT('',(16.595915808445,59.557001749674,0.));
#1557 = VECTOR('',#1558,1.);
#1558 = DIRECTION('',(0.,0.,1.));
#1559 = ORIENTED_EDGE('',*,*,#206,.F.);
#1560 = PLANE('',#1561);
#1561 = AXIS2_PLACEMENT_3D('',#1562,#1563,#1564);
#1562 = CARTESIAN_POINT('',(17.379003580387,60.474659601847,0.));
#1563 = DIRECTION('',(0.760678566323,-0.649128738184,0.));
#1564 = DIRECTION('',(-0.649128738184,-0.760678566323,0.));
#1565 = ADVANCED_FACE('',(#1566),#1577,.F.);
#1566 = FACE_BOUND('',#1567,.F.);
#1567 = EDGE_LOOP('',(#1568,#1574,#1575,#1576));
#1568 = ORIENTED_EDGE('',*,*,#1569,.T.);
#1569 = EDGE_CURVE('',#495,#1006,#1570,.T.);
#1570 = LINE('',#1571,#1572);
#1571 = CARTESIAN_POINT('',(1.219217772736,28.263145764669,0.));
#1572 = VECTOR('',#1573,1.);
#1573 = DIRECTION('',(0.,0.,1.));
#1574 = ORIENTED_EDGE('',*,*,#1013,.T.);
#1575 = ORIENTED_EDGE('',*,*,#1535,.F.);
#1576 = ORIENTED_EDGE('',*,*,#502,.F.);
#1577 = PLANE('',#1578);
#1578 = AXIS2_PLACEMENT_3D('',#1579,#1580,#1581);
#1579 = CARTESIAN_POINT('',(1.219217772736,28.263145764669,0.));
#1580 = DIRECTION('',(0.983093879649,-0.183102222259,0.));
#1581 = DIRECTION('',(-0.183102222259,-0.983093879649,0.));
#1582 = ADVANCED_FACE('',(#1583),#1594,.F.);
#1583 = FACE_BOUND('',#1584,.F.);
#1584 = EDGE_LOOP('',(#1585,#1586,#1587,#1593));
#1585 = ORIENTED_EDGE('',*,*,#1554,.T.);
#1586 = ORIENTED_EDGE('',*,*,#725,.T.);
#1587 = ORIENTED_EDGE('',*,*,#1588,.F.);
#1588 = EDGE_CURVE('',#215,#726,#1589,.T.);
#1589 = LINE('',#1590,#1591);
#1590 = CARTESIAN_POINT('',(15.839232054378,58.644404093424,0.));
#1591 = VECTOR('',#1592,1.);
#1592 = DIRECTION('',(0.,0.,1.));
#1593 = ORIENTED_EDGE('',*,*,#214,.F.);
#1594 = PLANE('',#1595);
#1595 = AXIS2_PLACEMENT_3D('',#1596,#1597,#1598);
#1596 = CARTESIAN_POINT('',(16.595915808445,59.557001749674,0.));
#1597 = DIRECTION('',(0.769801290859,-0.638283614541,0.));
#1598 = DIRECTION('',(-0.638283614541,-0.769801290859,0.));
#1599 = ADVANCED_FACE('',(#1600),#1611,.F.);
#1600 = FACE_BOUND('',#1601,.F.);
#1601 = EDGE_LOOP('',(#1602,#1608,#1609,#1610));
#1602 = ORIENTED_EDGE('',*,*,#1603,.T.);
#1603 = EDGE_CURVE('',#487,#998,#1604,.T.);
#1604 = LINE('',#1605,#1606);
#1605 = CARTESIAN_POINT('',(1.407959411028,29.199649175008,0.));
#1606 = VECTOR('',#1607,1.);
#1607 = DIRECTION('',(0.,0.,1.));
#1608 = ORIENTED_EDGE('',*,*,#1005,.T.);
#1609 = ORIENTED_EDGE('',*,*,#1569,.F.);
#1610 = ORIENTED_EDGE('',*,*,#494,.F.);
#1611 = PLANE('',#1612);
#1612 = AXIS2_PLACEMENT_3D('',#1613,#1614,#1615);
#1613 = CARTESIAN_POINT('',(1.407959411028,29.199649175008,0.));
#1614 = DIRECTION('',(0.980289540078,-0.197566236014,0.));
#1615 = DIRECTION('',(-0.197566236014,-0.980289540078,0.));
#1616 = ADVANCED_FACE('',(#1617),#1628,.F.);
#1617 = FACE_BOUND('',#1618,.F.);
#1618 = EDGE_LOOP('',(#1619,#1620,#1621,#1627));
#1619 = ORIENTED_EDGE('',*,*,#1588,.T.);
#1620 = ORIENTED_EDGE('',*,*,#733,.T.);
#1621 = ORIENTED_EDGE('',*,*,#1622,.F.);
#1622 = EDGE_CURVE('',#223,#734,#1623,.T.);
#1623 = LINE('',#1624,#1625);
#1624 = CARTESIAN_POINT('',(15.107951987039,57.736497243245,0.));
#1625 = VECTOR('',#1626,1.);
#1626 = DIRECTION('',(0.,0.,1.));
#1627 = ORIENTED_EDGE('',*,*,#222,.F.);
#1628 = PLANE('',#1629);
#1629 = AXIS2_PLACEMENT_3D('',#1630,#1631,#1632);
#1630 = CARTESIAN_POINT('',(15.839232054378,58.644404093424,0.));
#1631 = DIRECTION('',(0.778791346377,-0.627283061152,0.));
#1632 = DIRECTION('',(-0.627283061152,-0.778791346377,0.));
#1633 = ADVANCED_FACE('',(#1634),#1645,.F.);
#1634 = FACE_BOUND('',#1635,.F.);
#1635 = EDGE_LOOP('',(#1636,#1642,#1643,#1644));
#1636 = ORIENTED_EDGE('',*,*,#1637,.T.);
#1637 = EDGE_CURVE('',#479,#990,#1638,.T.);
#1638 = LINE('',#1639,#1640);
#1639 = CARTESIAN_POINT('',(1.609747462602,30.129872957865,0.));
#1640 = VECTOR('',#1641,1.);
#1641 = DIRECTION('',(0.,0.,1.));
#1642 = ORIENTED_EDGE('',*,*,#997,.T.);
#1643 = ORIENTED_EDGE('',*,*,#1603,.F.);
#1644 = ORIENTED_EDGE('',*,*,#486,.F.);
#1645 = PLANE('',#1646);
#1646 = AXIS2_PLACEMENT_3D('',#1647,#1648,#1649);
#1647 = CARTESIAN_POINT('',(1.609747462602,30.129872957865,0.));
#1648 = DIRECTION('',(0.977271024589,-0.211993736933,0.));
#1649 = DIRECTION('',(-0.211993736933,-0.977271024589,0.));
#1650 = ADVANCED_FACE('',(#1651),#1662,.F.);
#1651 = FACE_BOUND('',#1652,.F.);
#1652 = EDGE_LOOP('',(#1653,#1654,#1655,#1661));
#1653 = ORIENTED_EDGE('',*,*,#1622,.T.);
#1654 = ORIENTED_EDGE('',*,*,#741,.T.);
#1655 = ORIENTED_EDGE('',*,*,#1656,.F.);
#1656 = EDGE_CURVE('',#231,#742,#1657,.T.);
#1657 = LINE('',#1658,#1659);
#1658 = CARTESIAN_POINT('',(14.570684810152,57.052129109701,0.));
#1659 = VECTOR('',#1660,1.);
#1660 = DIRECTION('',(0.,0.,1.));
#1661 = ORIENTED_EDGE('',*,*,#230,.F.);
#1662 = PLANE('',#1663);
#1663 = AXIS2_PLACEMENT_3D('',#1664,#1665,#1666);
#1664 = CARTESIAN_POINT('',(15.107951987039,57.736497243245,0.));
#1665 = DIRECTION('',(0.786569891189,-0.61750126014,0.));
#1666 = DIRECTION('',(-0.61750126014,-0.786569891189,0.));
#1667 = ADVANCED_FACE('',(#1668),#1679,.F.);
#1668 = FACE_BOUND('',#1669,.F.);
#1669 = EDGE_LOOP('',(#1670,#1676,#1677,#1678));
#1670 = ORIENTED_EDGE('',*,*,#1671,.T.);
#1671 = EDGE_CURVE('',#471,#982,#1672,.T.);
#1672 = LINE('',#1673,#1674);
#1673 = CARTESIAN_POINT('',(1.824558048917,31.054182052612,0.));
#1674 = VECTOR('',#1675,1.);
#1675 = DIRECTION('',(0.,0.,1.));
#1676 = ORIENTED_EDGE('',*,*,#989,.T.);
#1677 = ORIENTED_EDGE('',*,*,#1637,.F.);
#1678 = ORIENTED_EDGE('',*,*,#478,.F.);
#1679 = PLANE('',#1680);
#1680 = AXIS2_PLACEMENT_3D('',#1681,#1682,#1683);
#1681 = CARTESIAN_POINT('',(1.824558048917,31.054182052612,0.));
#1682 = DIRECTION('',(0.974041732263,-0.226368513294,0.));
#1683 = DIRECTION('',(-0.226368513294,-0.974041732263,0.));
#1684 = ADVANCED_FACE('',(#1685),#1696,.F.);
#1685 = FACE_BOUND('',#1686,.F.);
#1686 = EDGE_LOOP('',(#1687,#1688,#1689,#1695));
#1687 = ORIENTED_EDGE('',*,*,#1656,.T.);
#1688 = ORIENTED_EDGE('',*,*,#749,.T.);
#1689 = ORIENTED_EDGE('',*,*,#1690,.F.);
#1690 = EDGE_CURVE('',#239,#750,#1691,.T.);
#1691 = LINE('',#1692,#1693);
#1692 = CARTESIAN_POINT('',(14.401119437749,56.832929611206,0.));
#1693 = VECTOR('',#1694,1.);
#1694 = DIRECTION('',(0.,0.,1.));
#1695 = ORIENTED_EDGE('',*,*,#238,.F.);
#1696 = PLANE('',#1697);
#1697 = AXIS2_PLACEMENT_3D('',#1698,#1699,#1700);
#1698 = CARTESIAN_POINT('',(14.570684810152,57.052129109701,0.));
#1699 = DIRECTION('',(0.790963755923,-0.611863004942,0.));
#1700 = DIRECTION('',(-0.611863004942,-0.790963755923,0.));
#1701 = ADVANCED_FACE('',(#1702),#1713,.F.);
#1702 = FACE_BOUND('',#1703,.F.);
#1703 = EDGE_LOOP('',(#1704,#1710,#1711,#1712));
#1704 = ORIENTED_EDGE('',*,*,#1705,.T.);
#1705 = EDGE_CURVE('',#463,#974,#1706,.T.);
#1706 = LINE('',#1707,#1708);
#1707 = CARTESIAN_POINT('',(2.052383082079,31.972968101501,0.));
#1708 = VECTOR('',#1709,1.);
#1709 = DIRECTION('',(0.,0.,1.));
#1710 = ORIENTED_EDGE('',*,*,#981,.T.);
#1711 = ORIENTED_EDGE('',*,*,#1671,.F.);
#1712 = ORIENTED_EDGE('',*,*,#470,.F.);
#1713 = PLANE('',#1714);
#1714 = AXIS2_PLACEMENT_3D('',#1715,#1716,#1717);
#1715 = CARTESIAN_POINT('',(2.052383082079,31.972968101501,0.));
#1716 = DIRECTION('',(0.970605899491,-0.240674443747,0.));
#1717 = DIRECTION('',(-0.240674443747,-0.970605899491,0.));
#1718 = ADVANCED_FACE('',(#1719),#1730,.F.);
#1719 = FACE_BOUND('',#1720,.F.);
#1720 = EDGE_LOOP('',(#1721,#1722,#1723,#1729));
#1721 = ORIENTED_EDGE('',*,*,#1690,.T.);
#1722 = ORIENTED_EDGE('',*,*,#757,.T.);
#1723 = ORIENTED_EDGE('',*,*,#1724,.F.);
#1724 = EDGE_CURVE('',#247,#758,#1725,.T.);
#1725 = LINE('',#1726,#1727);
#1726 = CARTESIAN_POINT('',(13.717853211308,55.933362960815,0.));
#1727 = VECTOR('',#1728,1.);
#1728 = DIRECTION('',(0.,0.,1.));
#1729 = ORIENTED_EDGE('',*,*,#246,.F.);
#1730 = PLANE('',#1731);
#1731 = AXIS2_PLACEMENT_3D('',#1732,#1733,#1734);
#1732 = CARTESIAN_POINT('',(14.401119437749,56.832929611206,0.));
#1733 = DIRECTION('',(0.796334634342,-0.604856305372,0.));
#1734 = DIRECTION('',(-0.604856305372,-0.796334634342,0.));
#1735 = ADVANCED_FACE('',(#1736),#1747,.F.);
#1736 = FACE_BOUND('',#1737,.F.);
#1737 = EDGE_LOOP('',(#1738,#1744,#1745,#1746));
#1738 = ORIENTED_EDGE('',*,*,#1739,.T.);
#1739 = EDGE_CURVE('',#455,#966,#1740,.T.);
#1740 = LINE('',#1741,#1742);
#1741 = CARTESIAN_POINT('',(2.293254785282,32.886604944865,0.));
#1742 = VECTOR('',#1743,1.);
#1743 = DIRECTION('',(0.,0.,1.));
#1744 = ORIENTED_EDGE('',*,*,#973,.T.);
#1745 = ORIENTED_EDGE('',*,*,#1705,.F.);
#1746 = ORIENTED_EDGE('',*,*,#462,.F.);
#1747 = PLANE('',#1748);
#1748 = AXIS2_PLACEMENT_3D('',#1749,#1750,#1751);
#1749 = CARTESIAN_POINT('',(2.293254785282,32.886604944865,0.));
#1750 = DIRECTION('',(0.966959579714,-0.254929737768,0.));
#1751 = DIRECTION('',(-0.254929737768,-0.966959579714,0.));
#1752 = ADVANCED_FACE('',(#1753),#1764,.F.);
#1753 = FACE_BOUND('',#1754,.F.);
#1754 = EDGE_LOOP('',(#1755,#1756,#1757,#1763));
#1755 = ORIENTED_EDGE('',*,*,#1724,.T.);
#1756 = ORIENTED_EDGE('',*,*,#765,.T.);
#1757 = ORIENTED_EDGE('',*,*,#1758,.F.);
#1758 = EDGE_CURVE('',#255,#766,#1759,.T.);
#1759 = LINE('',#1760,#1761);
#1760 = CARTESIAN_POINT('',(13.057293680234,55.037450154622,0.));
#1761 = VECTOR('',#1762,1.);
#1762 = DIRECTION('',(0.,0.,1.));
#1763 = ORIENTED_EDGE('',*,*,#254,.F.);
#1764 = PLANE('',#1765);
#1765 = AXIS2_PLACEMENT_3D('',#1766,#1767,#1768);
#1766 = CARTESIAN_POINT('',(13.717853211308,55.933362960815,0.));
#1767 = DIRECTION('',(0.804878502161,-0.593439631942,0.));
#1768 = DIRECTION('',(-0.593439631942,-0.804878502161,0.));
#1769 = ADVANCED_FACE('',(#1770),#1781,.F.);
#1770 = FACE_BOUND('',#1771,.F.);
#1771 = EDGE_LOOP('',(#1772,#1778,#1779,#1780));
#1772 = ORIENTED_EDGE('',*,*,#1773,.T.);
#1773 = EDGE_CURVE('',#447,#958,#1774,.T.);
#1774 = LINE('',#1775,#1776);
#1775 = CARTESIAN_POINT('',(2.547220787227,33.795459747314,0.));
#1776 = VECTOR('',#1777,1.);
#1777 = DIRECTION('',(0.,0.,1.));
#1778 = ORIENTED_EDGE('',*,*,#965,.T.);
#1779 = ORIENTED_EDGE('',*,*,#1739,.F.);
#1780 = ORIENTED_EDGE('',*,*,#454,.F.);
#1781 = PLANE('',#1782);
#1782 = AXIS2_PLACEMENT_3D('',#1783,#1784,#1785);
#1783 = CARTESIAN_POINT('',(2.547220787227,33.795459747314,0.));
#1784 = DIRECTION('',(0.963105129888,-0.269125451757,0.));
#1785 = DIRECTION('',(-0.269125451757,-0.963105129888,0.));
#1786 = ADVANCED_FACE('',(#1787),#1798,.F.);
#1787 = FACE_BOUND('',#1788,.F.);
#1788 = EDGE_LOOP('',(#1789,#1790,#1791,#1797));
#1789 = ORIENTED_EDGE('',*,*,#1758,.T.);
#1790 = ORIENTED_EDGE('',*,*,#773,.T.);
#1791 = ORIENTED_EDGE('',*,*,#1792,.F.);
#1792 = EDGE_CURVE('',#263,#774,#1793,.T.);
#1793 = LINE('',#1794,#1795);
#1794 = CARTESIAN_POINT('',(12.418678785277,54.144870758057,0.));
#1795 = VECTOR('',#1796,1.);
#1796 = DIRECTION('',(0.,0.,1.));
#1797 = ORIENTED_EDGE('',*,*,#262,.F.);
#1798 = PLANE('',#1799);
#1799 = AXIS2_PLACEMENT_3D('',#1800,#1801,#1802);
#1800 = CARTESIAN_POINT('',(13.057293680234,55.037450154622,0.));
#1801 = DIRECTION('',(0.813277195503,-0.58187645018,0.));
#1802 = DIRECTION('',(-0.58187645018,-0.813277195503,0.));
#1803 = ADVANCED_FACE('',(#1804),#1815,.F.);
#1804 = FACE_BOUND('',#1805,.F.);
#1805 = EDGE_LOOP('',(#1806,#1812,#1813,#1814));
#1806 = ORIENTED_EDGE('',*,*,#1807,.T.);
#1807 = EDGE_CURVE('',#439,#950,#1808,.T.);
#1808 = LINE('',#1809,#1810);
#1809 = CARTESIAN_POINT('',(2.814330000412,34.699884096781,0.));
#1810 = VECTOR('',#1811,1.);
#1811 = DIRECTION('',(0.,0.,1.));
#1812 = ORIENTED_EDGE('',*,*,#957,.T.);
#1813 = ORIENTED_EDGE('',*,*,#1773,.F.);
#1814 = ORIENTED_EDGE('',*,*,#446,.F.);
#1815 = PLANE('',#1816);
#1816 = AXIS2_PLACEMENT_3D('',#1817,#1818,#1819);
#1817 = CARTESIAN_POINT('',(2.814330000412,34.699884096781,0.));
#1818 = DIRECTION('',(0.959048554687,-0.283241716125,0.));
#1819 = DIRECTION('',(-0.283241716125,-0.959048554687,0.));
#1820 = ADVANCED_FACE('',(#1821),#1832,.F.);
#1821 = FACE_BOUND('',#1822,.F.);
#1822 = EDGE_LOOP('',(#1823,#1824,#1825,#1831));
#1823 = ORIENTED_EDGE('',*,*,#1792,.T.);
#1824 = ORIENTED_EDGE('',*,*,#781,.T.);
#1825 = ORIENTED_EDGE('',*,*,#1826,.F.);
#1826 = EDGE_CURVE('',#271,#782,#1827,.T.);
#1827 = LINE('',#1828,#1829);
#1828 = CARTESIAN_POINT('',(11.80124749422,53.255273183187,0.));
#1829 = VECTOR('',#1830,1.);
#1830 = DIRECTION('',(0.,0.,1.));
#1831 = ORIENTED_EDGE('',*,*,#270,.F.);
#1832 = PLANE('',#1833);
#1833 = AXIS2_PLACEMENT_3D('',#1834,#1835,#1836);
#1834 = CARTESIAN_POINT('',(12.418678785277,54.144870758057,0.));
#1835 = DIRECTION('',(0.821519117294,-0.570180971202,0.));
#1836 = DIRECTION('',(-0.570180971202,-0.821519117294,0.));
#1837 = ADVANCED_FACE('',(#1838),#1849,.F.);
#1838 = FACE_BOUND('',#1839,.F.);
#1839 = EDGE_LOOP('',(#1840,#1846,#1847,#1848));
#1840 = ORIENTED_EDGE('',*,*,#1841,.T.);
#1841 = EDGE_CURVE('',#431,#942,#1842,.T.);
#1842 = LINE('',#1843,#1844);
#1843 = CARTESIAN_POINT('',(3.094670236246,35.600220680237,0.));
#1844 = VECTOR('',#1845,1.);
#1845 = DIRECTION('',(0.,0.,1.));
#1846 = ORIENTED_EDGE('',*,*,#949,.T.);
#1847 = ORIENTED_EDGE('',*,*,#1807,.F.);
#1848 = ORIENTED_EDGE('',*,*,#438,.F.);
#1849 = PLANE('',#1850);
#1850 = AXIS2_PLACEMENT_3D('',#1851,#1852,#1853);
#1851 = CARTESIAN_POINT('',(3.094670236246,35.600220680237,0.));
#1852 = DIRECTION('',(0.954785901976,-0.297294267332,0.));
#1853 = DIRECTION('',(-0.297294267332,-0.954785901976,0.));
#1854 = ADVANCED_FACE('',(#1855),#1866,.F.);
#1855 = FACE_BOUND('',#1856,.F.);
#1856 = EDGE_LOOP('',(#1857,#1858,#1859,#1865));
#1857 = ORIENTED_EDGE('',*,*,#1826,.T.);
#1858 = ORIENTED_EDGE('',*,*,#789,.T.);
#1859 = ORIENTED_EDGE('',*,*,#1860,.F.);
#1860 = EDGE_CURVE('',#279,#790,#1861,.T.);
#1861 = LINE('',#1862,#1863);
#1862 = CARTESIAN_POINT('',(11.2043158024,52.368336995443,0.));
#1863 = VECTOR('',#1864,1.);
#1864 = DIRECTION('',(0.,0.,1.));
#1865 = ORIENTED_EDGE('',*,*,#278,.F.);
#1866 = PLANE('',#1867);
#1867 = AXIS2_PLACEMENT_3D('',#1868,#1869,#1870);
#1868 = CARTESIAN_POINT('',(11.80124749422,53.255273183187,0.));
#1869 = DIRECTION('',(0.829607066416,-0.558347665305,0.));
#1870 = DIRECTION('',(-0.558347665305,-0.829607066416,0.));
#1871 = ADVANCED_FACE('',(#1872),#1883,.F.);
#1872 = FACE_BOUND('',#1873,.F.);
#1873 = EDGE_LOOP('',(#1874,#1880,#1881,#1882));
#1874 = ORIENTED_EDGE('',*,*,#1875,.T.);
#1875 = EDGE_CURVE('',#423,#934,#1876,.T.);
#1876 = LINE('',#1877,#1878);
#1877 = CARTESIAN_POINT('',(3.388353698195,36.496827761332,0.));
#1878 = VECTOR('',#1879,1.);
#1879 = DIRECTION('',(0.,0.,1.));
#1880 = ORIENTED_EDGE('',*,*,#941,.T.);
#1881 = ORIENTED_EDGE('',*,*,#1841,.F.);
#1882 = ORIENTED_EDGE('',*,*,#430,.F.);
#1883 = PLANE('',#1884);
#1884 = AXIS2_PLACEMENT_3D('',#1885,#1886,#1887);
#1885 = CARTESIAN_POINT('',(3.388353698195,36.496827761332,0.));
#1886 = DIRECTION('',(0.950319265328,-0.311276876665,0.));
#1887 = DIRECTION('',(-0.311276876665,-0.950319265328,0.));
#1888 = ADVANCED_FACE('',(#1889),#1900,.F.);
#1889 = FACE_BOUND('',#1890,.F.);
#1890 = EDGE_LOOP('',(#1891,#1892,#1893,#1899));
#1891 = ORIENTED_EDGE('',*,*,#1860,.T.);
#1892 = ORIENTED_EDGE('',*,*,#797,.T.);
#1893 = ORIENTED_EDGE('',*,*,#1894,.F.);
#1894 = EDGE_CURVE('',#287,#798,#1895,.T.);
#1895 = LINE('',#1896,#1897);
#1896 = CARTESIAN_POINT('',(10.627226408038,51.483741760254,0.));
#1897 = VECTOR('',#1898,1.);
#1898 = DIRECTION('',(0.,0.,1.));
#1899 = ORIENTED_EDGE('',*,*,#286,.F.);
#1900 = PLANE('',#1901);
#1901 = AXIS2_PLACEMENT_3D('',#1902,#1903,#1904);
#1902 = CARTESIAN_POINT('',(11.2043158024,52.368336995443,0.));
#1903 = DIRECTION('',(0.837532844027,-0.546386982986,0.));
#1904 = DIRECTION('',(-0.546386982986,-0.837532844027,0.));
#1905 = ADVANCED_FACE('',(#1906),#1917,.F.);
#1906 = FACE_BOUND('',#1907,.F.);
#1907 = EDGE_LOOP('',(#1908,#1914,#1915,#1916));
#1908 = ORIENTED_EDGE('',*,*,#1909,.T.);
#1909 = EDGE_CURVE('',#415,#926,#1910,.T.);
#1910 = LINE('',#1911,#1912);
#1911 = CARTESIAN_POINT('',(3.695493103246,37.390036900838,0.));
#1912 = VECTOR('',#1913,1.);
#1913 = DIRECTION('',(0.,0.,1.));
#1914 = ORIENTED_EDGE('',*,*,#933,.T.);
#1915 = ORIENTED_EDGE('',*,*,#1875,.F.);
#1916 = ORIENTED_EDGE('',*,*,#422,.F.);
#1917 = PLANE('',#1918);
#1918 = AXIS2_PLACEMENT_3D('',#1919,#1920,#1921);
#1919 = CARTESIAN_POINT('',(3.695493103246,37.390036900838,0.));
#1920 = DIRECTION('',(0.945654449766,-0.325173279402,0.));
#1921 = DIRECTION('',(-0.325173279402,-0.945654449766,0.));
#1922 = ADVANCED_FACE('',(#1923),#1934,.F.);
#1923 = FACE_BOUND('',#1924,.F.);
#1924 = EDGE_LOOP('',(#1925,#1926,#1927,#1933));
#1925 = ORIENTED_EDGE('',*,*,#1894,.T.);
#1926 = ORIENTED_EDGE('',*,*,#805,.T.);
#1927 = ORIENTED_EDGE('',*,*,#1928,.F.);
#1928 = EDGE_CURVE('',#295,#806,#1929,.T.);
#1929 = LINE('',#1930,#1931);
#1930 = CARTESIAN_POINT('',(10.069371306987,50.601144790649,0.));
#1931 = VECTOR('',#1932,1.);
#1932 = DIRECTION('',(0.,0.,1.));
#1933 = ORIENTED_EDGE('',*,*,#294,.F.);
#1934 = PLANE('',#1935);
#1935 = AXIS2_PLACEMENT_3D('',#1936,#1937,#1938);
#1936 = CARTESIAN_POINT('',(10.627226408038,51.483741760254,0.));
#1937 = DIRECTION('',(0.845304890617,-0.53428423325,0.));
#1938 = DIRECTION('',(-0.53428423325,-0.845304890617,0.));
#1939 = ADVANCED_FACE('',(#1940),#1951,.F.);
#1940 = FACE_BOUND('',#1941,.F.);
#1941 = EDGE_LOOP('',(#1942,#1948,#1949,#1950));
#1942 = ORIENTED_EDGE('',*,*,#1943,.T.);
#1943 = EDGE_CURVE('',#407,#918,#1944,.T.);
#1944 = LINE('',#1945,#1946);
#1945 = CARTESIAN_POINT('',(4.01623274968,38.280190785726,0.));
#1946 = VECTOR('',#1947,1.);
#1947 = DIRECTION('',(0.,0.,1.));
#1948 = ORIENTED_EDGE('',*,*,#925,.T.);
#1949 = ORIENTED_EDGE('',*,*,#1909,.F.);
#1950 = ORIENTED_EDGE('',*,*,#414,.F.);
#1951 = PLANE('',#1952);
#1952 = AXIS2_PLACEMENT_3D('',#1953,#1954,#1955);
#1953 = CARTESIAN_POINT('',(4.01623274968,38.280190785726,0.));
#1954 = DIRECTION('',(0.940791632083,-0.338985405293,0.));
#1955 = DIRECTION('',(-0.338985405293,-0.940791632083,0.));
#1956 = ADVANCED_FACE('',(#1957),#1968,.F.);
#1957 = FACE_BOUND('',#1958,.F.);
#1958 = EDGE_LOOP('',(#1959,#1960,#1961,#1967));
#1959 = ORIENTED_EDGE('',*,*,#1928,.T.);
#1960 = ORIENTED_EDGE('',*,*,#813,.T.);
#1961 = ORIENTED_EDGE('',*,*,#1962,.F.);
#1962 = EDGE_CURVE('',#303,#814,#1963,.T.);
#1963 = LINE('',#1964,#1965);
#1964 = CARTESIAN_POINT('',(9.530178441294,49.72025680542,0.));
#1965 = VECTOR('',#1966,1.);
#1966 = DIRECTION('',(0.,0.,1.));
#1967 = ORIENTED_EDGE('',*,*,#302,.F.);
#1968 = PLANE('',#1969);
#1969 = AXIS2_PLACEMENT_3D('',#1970,#1971,#1972);
#1970 = CARTESIAN_POINT('',(10.069371306987,50.601144790649,0.));
#1971 = DIRECTION('',(0.852905760518,-0.522064903701,0.));
#1972 = DIRECTION('',(-0.522064903701,-0.852905760518,0.));
#1973 = ADVANCED_FACE('',(#1974),#1985,.F.);
#1974 = FACE_BOUND('',#1975,.F.);
#1975 = EDGE_LOOP('',(#1976,#1982,#1983,#1984));
#1976 = ORIENTED_EDGE('',*,*,#1977,.T.);
#1977 = EDGE_CURVE('',#399,#910,#1978,.T.);
#1978 = LINE('',#1979,#1980);
#1979 = CARTESIAN_POINT('',(4.350741071076,39.167607625326,0.));
#1980 = VECTOR('',#1981,1.);
#1981 = DIRECTION('',(0.,0.,1.));
#1982 = ORIENTED_EDGE('',*,*,#917,.T.);
#1983 = ORIENTED_EDGE('',*,*,#1943,.F.);
#1984 = ORIENTED_EDGE('',*,*,#406,.F.);
#1985 = PLANE('',#1986);
#1986 = AXIS2_PLACEMENT_3D('',#1987,#1988,#1989);
#1987 = CARTESIAN_POINT('',(4.350741071076,39.167607625326,0.));
#1988 = DIRECTION('',(0.935729122555,-0.352719448291,0.));
#1989 = DIRECTION('',(-0.352719448291,-0.935729122555,0.));
#1990 = ADVANCED_FACE('',(#1991),#2002,.F.);
#1991 = FACE_BOUND('',#1992,.F.);
#1992 = EDGE_LOOP('',(#1993,#1994,#1995,#2001));
#1993 = ORIENTED_EDGE('',*,*,#1962,.T.);
#1994 = ORIENTED_EDGE('',*,*,#821,.T.);
#1995 = ORIENTED_EDGE('',*,*,#1996,.F.);
#1996 = EDGE_CURVE('',#311,#822,#1997,.T.);
#1997 = LINE('',#1998,#1999);
#1998 = CARTESIAN_POINT('',(9.009102455888,48.840748469035,0.));
#1999 = VECTOR('',#2000,1.);
#2000 = DIRECTION('',(0.,0.,1.));
#2001 = ORIENTED_EDGE('',*,*,#310,.F.);
#2002 = PLANE('',#2003);
#2003 = AXIS2_PLACEMENT_3D('',#2004,#2005,#2006);
#2004 = CARTESIAN_POINT('',(9.530178441294,49.72025680542,0.));
#2005 = DIRECTION('',(0.860340497991,-0.5097197539,0.));
#2006 = DIRECTION('',(-0.5097197539,-0.860340497991,0.));
#2007 = ADVANCED_FACE('',(#2008),#2019,.F.);
#2008 = FACE_BOUND('',#2009,.F.);
#2009 = EDGE_LOOP('',(#2010,#2016,#2017,#2018));
#2010 = ORIENTED_EDGE('',*,*,#2011,.T.);
#2011 = EDGE_CURVE('',#391,#902,#2012,.T.);
#2012 = LINE('',#2013,#2014);
#2013 = CARTESIAN_POINT('',(4.699210636317,40.052634557088,0.));
#2014 = VECTOR('',#2015,1.);
#2015 = DIRECTION('',(0.,0.,1.));
#2016 = ORIENTED_EDGE('',*,*,#909,.T.);
#2017 = ORIENTED_EDGE('',*,*,#1977,.F.);
#2018 = ORIENTED_EDGE('',*,*,#398,.F.);
#2019 = PLANE('',#2020);
#2020 = AXIS2_PLACEMENT_3D('',#2021,#2022,#2023);
#2021 = CARTESIAN_POINT('',(4.699210636317,40.052634557088,0.));
#2022 = DIRECTION('',(0.930471984556,-0.366363052117,0.));
#2023 = DIRECTION('',(-0.366363052117,-0.930471984556,0.));
#2024 = ADVANCED_FACE('',(#2025),#2036,.F.);
#2025 = FACE_BOUND('',#2026,.F.);
#2026 = EDGE_LOOP('',(#2027,#2028,#2029,#2035));
#2027 = ORIENTED_EDGE('',*,*,#1996,.T.);
#2028 = ORIENTED_EDGE('',*,*,#829,.T.);
#2029 = ORIENTED_EDGE('',*,*,#2030,.F.);
#2030 = EDGE_CURVE('',#319,#830,#2031,.T.);
#2031 = LINE('',#2032,#2033);
#2032 = CARTESIAN_POINT('',(8.50563907706,47.962308247884,0.));
#2033 = VECTOR('',#2034,1.);
#2034 = DIRECTION('',(0.,0.,1.));
#2035 = ORIENTED_EDGE('',*,*,#318,.F.);
#2036 = PLANE('',#2037);
#2037 = AXIS2_PLACEMENT_3D('',#2038,#2039,#2040);
#2038 = CARTESIAN_POINT('',(9.009102455888,48.840748469035,0.));
#2039 = DIRECTION('',(0.867605289595,-0.497253518305,0.));
#2040 = DIRECTION('',(-0.497253518305,-0.867605289595,0.));
#2041 = ADVANCED_FACE('',(#2042),#2053,.F.);
#2042 = FACE_BOUND('',#2043,.F.);
#2043 = EDGE_LOOP('',(#2044,#2050,#2051,#2052));
#2044 = ORIENTED_EDGE('',*,*,#2045,.T.);
#2045 = EDGE_CURVE('',#383,#894,#2046,.T.);
#2046 = LINE('',#2047,#2048);
#2047 = CARTESIAN_POINT('',(5.061841973795,40.935574213664,0.));
#2048 = VECTOR('',#2049,1.);
#2049 = DIRECTION('',(0.,0.,1.));
#2050 = ORIENTED_EDGE('',*,*,#901,.T.);
#2051 = ORIENTED_EDGE('',*,*,#2011,.F.);
#2052 = ORIENTED_EDGE('',*,*,#390,.F.);
#2053 = PLANE('',#2054);
#2054 = AXIS2_PLACEMENT_3D('',#2055,#2056,#2057);
#2055 = CARTESIAN_POINT('',(5.061841973795,40.935574213664,0.));
#2056 = DIRECTION('',(0.925021509393,-0.379914736698,0.));
#2057 = DIRECTION('',(-0.379914736698,-0.925021509393,0.));
#2058 = ADVANCED_FACE('',(#2059),#2070,.F.);
#2059 = FACE_BOUND('',#2060,.F.);
#2060 = EDGE_LOOP('',(#2061,#2062,#2063,#2069));
#2061 = ORIENTED_EDGE('',*,*,#2030,.T.);
#2062 = ORIENTED_EDGE('',*,*,#837,.T.);
#2063 = ORIENTED_EDGE('',*,*,#2064,.F.);
#2064 = EDGE_CURVE('',#327,#838,#2065,.T.);
#2065 = LINE('',#2066,#2067);
#2066 = CARTESIAN_POINT('',(8.019322031362,47.084615707397,0.));
#2067 = VECTOR('',#2068,1.);
#2068 = DIRECTION('',(0.,0.,1.));
#2069 = ORIENTED_EDGE('',*,*,#326,.F.);
#2070 = PLANE('',#2071);
#2071 = AXIS2_PLACEMENT_3D('',#2072,#2073,#2074);
#2072 = CARTESIAN_POINT('',(8.50563907706,47.962308247884,0.));
#2073 = DIRECTION('',(0.874702466682,-0.484660288016,0.));
#2074 = DIRECTION('',(-0.484660288016,-0.874702466682,0.));
#2075 = ADVANCED_FACE('',(#2076),#2087,.F.);
#2076 = FACE_BOUND('',#2077,.F.);
#2077 = EDGE_LOOP('',(#2078,#2084,#2085,#2086));
#2078 = ORIENTED_EDGE('',*,*,#2079,.T.);
#2079 = EDGE_CURVE('',#375,#886,#2080,.T.);
#2080 = LINE('',#2081,#2082);
#2081 = CARTESIAN_POINT('',(5.438875409475,41.816755930583,0.));
#2082 = VECTOR('',#2083,1.);
#2083 = DIRECTION('',(0.,0.,1.));
#2084 = ORIENTED_EDGE('',*,*,#893,.T.);
#2085 = ORIENTED_EDGE('',*,*,#2045,.F.);
#2086 = ORIENTED_EDGE('',*,*,#382,.F.);
#2087 = PLANE('',#2088);
#2088 = AXIS2_PLACEMENT_3D('',#2089,#2090,#2091);
#2089 = CARTESIAN_POINT('',(5.438875409475,41.816755930583,0.));
#2090 = DIRECTION('',(0.919377523355,-0.393376371368,0.));
#2091 = DIRECTION('',(-0.393376371368,-0.919377523355,0.));
#2092 = ADVANCED_FACE('',(#2093),#2104,.F.);
#2093 = FACE_BOUND('',#2094,.F.);
#2094 = EDGE_LOOP('',(#2095,#2096,#2097,#2103));
#2095 = ORIENTED_EDGE('',*,*,#2064,.T.);
#2096 = ORIENTED_EDGE('',*,*,#845,.T.);
#2097 = ORIENTED_EDGE('',*,*,#2098,.F.);
#2098 = EDGE_CURVE('',#335,#846,#2099,.T.);
#2099 = LINE('',#2100,#2101);
#2100 = CARTESIAN_POINT('',(7.549718937466,46.207359313965,0.));
#2101 = VECTOR('',#2102,1.);
#2102 = DIRECTION('',(0.,0.,1.));
#2103 = ORIENTED_EDGE('',*,*,#334,.F.);
#2104 = PLANE('',#2105);
#2105 = AXIS2_PLACEMENT_3D('',#2106,#2107,#2108);
#2106 = CARTESIAN_POINT('',(8.019322031362,47.084615707397,0.));
#2107 = DIRECTION('',(0.881628720775,-0.471943639331,0.));
#2108 = DIRECTION('',(-0.471943639331,-0.881628720775,0.));
#2109 = ADVANCED_FACE('',(#2110),#2121,.F.);
#2110 = FACE_BOUND('',#2111,.F.);
#2111 = EDGE_LOOP('',(#2112,#2118,#2119,#2120));
#2112 = ORIENTED_EDGE('',*,*,#2113,.T.);
#2113 = EDGE_CURVE('',#367,#878,#2114,.T.);
#2114 = LINE('',#2115,#2116);
#2115 = CARTESIAN_POINT('',(5.830552296353,42.696495691935,0.));
#2116 = VECTOR('',#2117,1.);
#2117 = DIRECTION('',(0.,0.,1.));
#2118 = ORIENTED_EDGE('',*,*,#885,.T.);
#2119 = ORIENTED_EDGE('',*,*,#2079,.F.);
#2120 = ORIENTED_EDGE('',*,*,#374,.F.);
#2121 = PLANE('',#2122);
#2122 = AXIS2_PLACEMENT_3D('',#2123,#2124,#2125);
#2123 = CARTESIAN_POINT('',(5.830552296353,42.696495691935,0.));
#2124 = DIRECTION('',(0.913548733684,-0.406729284886,0.));
#2125 = DIRECTION('',(-0.406729284886,-0.913548733684,0.));
#2126 = ADVANCED_FACE('',(#2127),#2138,.F.);
#2127 = FACE_BOUND('',#2128,.F.);
#2128 = EDGE_LOOP('',(#2129,#2130,#2131,#2137));
#2129 = ORIENTED_EDGE('',*,*,#2098,.T.);
#2130 = ORIENTED_EDGE('',*,*,#853,.T.);
#2131 = ORIENTED_EDGE('',*,*,#2132,.F.);
#2132 = EDGE_CURVE('',#343,#854,#2133,.T.);
#2133 = LINE('',#2134,#2135);
#2134 = CARTESIAN_POINT('',(7.09640357625,45.330236434937,0.));
#2135 = VECTOR('',#2136,1.);
#2136 = DIRECTION('',(0.,0.,1.));
#2137 = ORIENTED_EDGE('',*,*,#342,.F.);
#2138 = PLANE('',#2139);
#2139 = AXIS2_PLACEMENT_3D('',#2140,#2141,#2142);
#2140 = CARTESIAN_POINT('',(7.549718937466,46.207359313965,0.));
#2141 = DIRECTION('',(0.888370055104,-0.459128135922,0.));
#2142 = DIRECTION('',(-0.459128135922,-0.888370055104,0.));
#2143 = ADVANCED_FACE('',(#2144),#2155,.F.);
#2144 = FACE_BOUND('',#2145,.F.);
#2145 = EDGE_LOOP('',(#2146,#2152,#2153,#2154));
#2146 = ORIENTED_EDGE('',*,*,#2147,.T.);
#2147 = EDGE_CURVE('',#359,#870,#2148,.T.);
#2148 = LINE('',#2149,#2150);
#2149 = CARTESIAN_POINT('',(6.237161230991,43.575113932292,0.));
#2150 = VECTOR('',#2151,1.);
#2151 = DIRECTION('',(0.,0.,1.));
#2152 = ORIENTED_EDGE('',*,*,#877,.T.);
#2153 = ORIENTED_EDGE('',*,*,#2113,.F.);
#2154 = ORIENTED_EDGE('',*,*,#366,.F.);
#2155 = PLANE('',#2156);
#2156 = AXIS2_PLACEMENT_3D('',#2157,#2158,#2159);
#2157 = CARTESIAN_POINT('',(6.237161230991,43.575113932292,0.));
#2158 = DIRECTION('',(0.907529419332,-0.419988515374,0.));
#2159 = DIRECTION('',(-0.419988515374,-0.907529419332,0.));
#2160 = ADVANCED_FACE('',(#2161),#2172,.F.);
#2161 = FACE_BOUND('',#2162,.F.);
#2162 = EDGE_LOOP('',(#2163,#2164,#2165,#2171));
#2163 = ORIENTED_EDGE('',*,*,#2132,.T.);
#2164 = ORIENTED_EDGE('',*,*,#861,.T.);
#2165 = ORIENTED_EDGE('',*,*,#2166,.F.);
#2166 = EDGE_CURVE('',#351,#862,#2167,.T.);
#2167 = LINE('',#2168,#2169);
#2168 = CARTESIAN_POINT('',(6.659000053259,44.452926635742,0.));
#2169 = VECTOR('',#2170,1.);
#2170 = DIRECTION('',(0.,0.,1.));
#2171 = ORIENTED_EDGE('',*,*,#350,.F.);
#2172 = PLANE('',#2173);
#2173 = AXIS2_PLACEMENT_3D('',#2174,#2175,#2176);
#2174 = CARTESIAN_POINT('',(7.09640357625,45.330236434937,0.));
#2175 = DIRECTION('',(0.894937216007,-0.446192088013,0.));
#2176 = DIRECTION('',(-0.446192088013,-0.894937216007,0.));
#2177 = ADVANCED_FACE('',(#2178),#2184,.F.);
#2178 = FACE_BOUND('',#2179,.F.);
#2179 = EDGE_LOOP('',(#2180,#2181,#2182,#2183));
#2180 = ORIENTED_EDGE('',*,*,#2166,.T.);
#2181 = ORIENTED_EDGE('',*,*,#869,.T.);
#2182 = ORIENTED_EDGE('',*,*,#2147,.F.);
#2183 = ORIENTED_EDGE('',*,*,#358,.F.);
#2184 = PLANE('',#2185);
#2185 = AXIS2_PLACEMENT_3D('',#2186,#2187,#2188);
#2186 = CARTESIAN_POINT('',(6.659000053259,44.452926635742,0.));
#2187 = DIRECTION('',(0.901327198099,-0.433138871458,0.));
#2188 = DIRECTION('',(-0.433138871458,-0.901327198099,0.));
#2189 = ADVANCED_FACE('',(#2190),#2201,.F.);
#2190 = FACE_BOUND('',#2191,.T.);
#2191 = EDGE_LOOP('',(#2192,#2193,#2199,#2200));
#2192 = ORIENTED_EDGE('',*,*,#614,.F.);
#2193 = ORIENTED_EDGE('',*,*,#2194,.T.);
#2194 = EDGE_CURVE('',#615,#1134,#2195,.T.);
#2195 = LINE('',#2196,#2197);
#2196 = CARTESIAN_POINT('',(4.699996626466,4.699987598136,0.));
#2197 = VECTOR('',#2198,1.);
#2198 = DIRECTION('',(0.,0.,1.));
#2199 = ORIENTED_EDGE('',*,*,#1133,.F.);
#2200 = ORIENTED_EDGE('',*,*,#2194,.F.);
#2201 = CYLINDRICAL_SURFACE('',#2202,1.700000037619);
#2202 = AXIS2_PLACEMENT_3D('',#2203,#2204,#2205);
#2203 = CARTESIAN_POINT('',(2.999996588847,4.699987598136,0.));
#2204 = DIRECTION('',(-0.,-0.,-1.));
#2205 = DIRECTION('',(1.,0.,0.));
#2206 = ADVANCED_FACE('',(#2207),#2218,.F.);
#2207 = FACE_BOUND('',#2208,.T.);
#2208 = EDGE_LOOP('',(#2209,#2210,#2216,#2217));
#2209 = ORIENTED_EDGE('',*,*,#625,.F.);
#2210 = ORIENTED_EDGE('',*,*,#2211,.T.);
#2211 = EDGE_CURVE('',#626,#1145,#2212,.T.);
#2212 = LINE('',#2213,#2214);
#2213 = CARTESIAN_POINT('',(24.699996906597,4.699987598136,0.));
#2214 = VECTOR('',#2215,1.);
#2215 = DIRECTION('',(0.,0.,1.));
#2216 = ORIENTED_EDGE('',*,*,#1144,.F.);
#2217 = ORIENTED_EDGE('',*,*,#2211,.F.);
#2218 = CYLINDRICAL_SURFACE('',#2219,1.700000036113);
#2219 = AXIS2_PLACEMENT_3D('',#2220,#2221,#2222);
#2220 = CARTESIAN_POINT('',(22.999996870484,4.699987598136,0.));
#2221 = DIRECTION('',(-0.,-0.,-1.));
#2222 = DIRECTION('',(1.,0.,0.));
#2223 = ( GEOMETRIC_REPRESENTATION_CONTEXT(3) 
GLOBAL_UNCERTAINTY_ASSIGNED_CONTEXT((#2227)) 
GLOBAL_UNIT_ASSIGNED_CONTEXT((#2224,#2225,#2226)) REPRESENTATION_CONTEXT
('Context #1','3D Context with UNIT and UNCERTAINTY') );
#2224 = ( LENGTH_UNIT() NAMED_UNIT(*) SI_UNIT(.MILLI.,.METRE.) );
#2225 = ( NAMED_UNIT(*) PLANE_ANGLE_UNIT() SI_UNIT($,.RADIAN.) );
#2226 = ( NAMED_UNIT(*) SI_UNIT($,.STERADIAN.) SOLID_ANGLE_UNIT() );
#2227 = UNCERTAINTY_MEASURE_WITH_UNIT(LENGTH_MEASURE(1.E-07),#2224,
  'distance_accuracy_value','confusion accuracy');
#2228 = PRODUCT_RELATED_PRODUCT_CATEGORY('part',$,(#7));
ENDSEC;
END-ISO-10303-21;
